<mxfile host="app.diagrams.net" agent="Mozilla/5.0 (Windows NT 10.0; Win64; x64; rv:136.0) Gecko/20100101 Firefox/136.0" version="26.0.16">
  <diagram name="Pagina-1" id="luuT_doJFNInnU2bNvtK">
    <mxGraphModel dx="2977" dy="1779" grid="1" gridSize="10" guides="1" tooltips="1" connect="1" arrows="1" fold="1" page="1" pageScale="1" pageWidth="827" pageHeight="1169" math="0" shadow="0">
      <root>
        <object label="" Impact_chain_title="Impact Chain BOLZANO - Multi-hazard / multi-risk" impact_chain_geographical_scope="Municipality of Bolzano, Trentino/Alto-Adige, Italy" impact_chain_temporal_scope="Current time, short-term future" impact_chain_authors="" Impact_chain_references="" impact_chain_purpose="Analysis of key risks related to climate-affected natural hazards (fluvial floods, landslides, heatwaves) on the municipality of Bolzano." impact_chain_last_modified="" id="0">
          <mxCell />
        </object>
        <mxCell id="1" parent="0" />
        <mxCell id="hAolNPLr_Q86P571yEu5-9" value="" style="shape=image;verticalLabelPosition=bottom;verticalAlign=top;imageAspect=0;image=data:image/jpeg,/9j/4AAQSkZJRgABAQEAkACQAAD/4QLmRXhpZgAATU0AKgAAAAgABAE7AAIAAAAJAAABSodpAAQAAAABAAABVJydAAEAAAASAAACzOocAAcAAAEMAAAAPgAAAAAc6gAAAAEAAAAAAAAAAAAAAAAAAAAAAAAAAAAAAAAAAAAAAAAAAAAAAAAAAAAAAAAAAAAAAAAAAAAAAAAAAAAAAAAAAAAAAAAAAAAAAAAAAAAAAAAAAAAAAAAAAAAAAAAAAAAAAAAAAAAAAAAAAAAAAAAAAAAAAAAAAAAAAAAAAAAAAAAAAAAAAAAAAAAAAAAAAAAAAAAAAAAAAAAAAAAAAAAAAAAAAAAAAAAAAAAAAAAAAAAAAAAAAAAAAAAAAAAAAAAAAAAAAAAAAAAAAAAAAAAAAAAAAAAAAAAAAAAAAAAAAAAAAAAAAAAAAAAAAAAAAAAAAAAAAAAAAAAAAAAAAAAAAAAAAAAAAAAAbXBpdHRvcmUAAAAFkAMAAgAAABQAAAKikAQAAgAAABQAAAK2kpEAAgAAAAMyOAAAkpIAAgAAAAMyOAAA6hwABwAAAQwAAAGWAAAAABzqAAAAAQAAAAAAAAAAAAAAAAAAAAAAAAAAAAAAAAAAAAAAAAAAAAAAAAAAAAAAAAAAAAAAAAAAAAAAAAAAAAAAAAAAAAAAAAAAAAAAAAAAAAAAAAAAAAAAAAAAAAAAAAAAAAAAAAAAAAAAAAAAAAAAAAAAAAAAAAAAAAAAAAAAAAAAAAAAAAAAAAAAAAAAAAAAAAAAAAAAAAAAAAAAAAAAAAAAAAAAAAAAAAAAAAAAAAAAAAAAAAAAAAAAAAAAAAAAAAAAAAAAAAAAAAAAAAAAAAAAAAAAAAAAAAAAAAAAAAAAAAAAAAAAAAAAAAAAAAAAAAAAAAAAAAAAAAAAAAAAAAAAAAAAAAAAAAAyMDI1OjAxOjIzIDA5OjMxOjU1ADIwMjU6MDE6MjMgMDk6MzE6NTUAAABtAHAAaQB0AHQAbwByAGUAAAD/4QQbaHR0cDovL25zLmFkb2JlLmNvbS94YXAvMS4wLwA8P3hwYWNrZXQgYmVnaW49J++7vycgaWQ9J1c1TTBNcENlaGlIenJlU3pOVGN6a2M5ZCc/Pg0KPHg6eG1wbWV0YSB4bWxuczp4PSJhZG9iZTpuczptZXRhLyI+PHJkZjpSREYgeG1sbnM6cmRmPSJodHRwOi8vd3d3LnczLm9yZy8xOTk5LzAyLzIyLXJkZi1zeW50YXgtbnMjIj48cmRmOkRlc2NyaXB0aW9uIHJkZjphYm91dD0idXVpZDpmYWY1YmRkNS1iYTNkLTExZGEtYWQzMS1kMzNkNzUxODJmMWIiIHhtbG5zOmRjPSJodHRwOi8vcHVybC5vcmcvZGMvZWxlbWVudHMvMS4xLyIvPjxyZGY6RGVzY3JpcHRpb24gcmRmOmFib3V0PSJ1dWlkOmZhZjViZGQ1LWJhM2QtMTFkYS1hZDMxLWQzM2Q3NTE4MmYxYiIgeG1sbnM6eG1wPSJodHRwOi8vbnMuYWRvYmUuY29tL3hhcC8xLjAvIj48eG1wOkNyZWF0ZURhdGU+MjAyNS0wMS0yM1QwOTozMTo1NS4yNzU8L3htcDpDcmVhdGVEYXRlPjwvcmRmOkRlc2NyaXB0aW9uPjxyZGY6RGVzY3JpcHRpb24gcmRmOmFib3V0PSJ1dWlkOmZhZjViZGQ1LWJhM2QtMTFkYS1hZDMxLWQzM2Q3NTE4MmYxYiIgeG1sbnM6ZGM9Imh0dHA6Ly9wdXJsLm9yZy9kYy9lbGVtZW50cy8xLjEvIj48ZGM6Y3JlYXRvcj48cmRmOlNlcSB4bWxuczpyZGY9Imh0dHA6Ly93d3cudzMub3JnLzE5OTkvMDIvMjItcmRmLXN5bnRheC1ucyMiPjxyZGY6bGk+bXBpdHRvcmU8L3JkZjpsaT48L3JkZjpTZXE+DQoJCQk8L2RjOmNyZWF0b3I+PC9yZGY6RGVzY3JpcHRpb24+PC9yZGY6UkRGPjwveDp4bXBtZXRhPg0KICAgICAgICAgICAgICAgICAgICAgICAgICAgICAgICAgICAgICAgICAgICAgICAgICAgICAgICAgICAgICAgICAgICAgICAgICAgICAgICAgICAgICAgICAgICAgICAgICAgIAogICAgICAgICAgICAgICAgICAgICAgICAgICAgICAgICAgICAgICAgICAgICAgICAgICAgICAgICAgICAgICAgICAgICAgICAgICAgICAgICAgICAgICAgICAgICAgICAgICAgCiAgICAgICAgICAgICAgICAgICAgICAgICAgICAgICAgICAgICAgICAgICAgICAgICAgICAgIDw/eHBhY2tldCBlbmQ9J3cnPz7/2wBDAAcFBQYFBAcGBQYIBwcIChELCgkJChUPEAwRGBUaGRgVGBcbHichGx0lHRcYIi4iJSgpKywrGiAvMy8qMicqKyr/2wBDAQcICAoJChQLCxQqHBgcKioqKioqKioqKioqKioqKioqKioqKioqKioqKioqKioqKioqKioqKioqKioqKioqKir/wAARCAH6ALsDASIAAhEBAxEB/8QAHwAAAQUBAQEBAQEAAAAAAAAAAAECAwQFBgcICQoL/8QAtRAAAgEDAwIEAwUFBAQAAAF9AQIDAAQRBRIhMUEGE1FhByJxFDKBkaEII0KxwRVS0fAkM2JyggkKFhcYGRolJicoKSo0NTY3ODk6Q0RFRkdISUpTVFVWV1hZWmNkZWZnaGlqc3R1dnd4eXqDhIWGh4iJipKTlJWWl5iZmqKjpKWmp6ipqrKztLW2t7i5usLDxMXGx8jJytLT1NXW19jZ2uHi4+Tl5ufo6erx8vP09fb3+Pn6/8QAHwEAAwEBAQEBAQEBAQAAAAAAAAECAwQFBgcICQoL/8QAtREAAgECBAQDBAcFBAQAAQJ3AAECAxEEBSExBhJBUQdhcRMiMoEIFEKRobHBCSMzUvAVYnLRChYkNOEl8RcYGRomJygpKjU2Nzg5OkNERUZHSElKU1RVVldYWVpjZGVmZ2hpanN0dXZ3eHl6goOEhYaHiImKkpOUlZaXmJmaoqOkpaanqKmqsrO0tba3uLm6wsPExcbHyMnK0tPU1dbX2Nna4uPk5ebn6Onq8vP09fb3+Pn6/9oADAMBAAIRAxEAPwD6RooooAKp6lq+m6Nam51e/tbCAdZbqZY1/NiBXJ+MfGWpR61F4T8D28N74juI/NlkmP7jTYTx5suO/wDdXqevoDFo/wAItChu/wC1PFbP4r1t+ZL7VBvUH0ji+4ijsMHHrQA64+Nnw6tpCkniqzYg4zGryD81Uiof+F6/Df8A6Gi3/wC/Ev8A8RXd21nbWabLS3igX+7EgUfpU1AHn3/C9fhv/wBDRb/9+Jf/AIij/hevw3/6Gi3/AO/Ev/xFeg0UAeff8L1+G/8A0NFv/wB+Jf8A4ij/AIXr8N/+hot/+/Ev/wARXoNFAHn3/C9fhv8A9DRb/wDfiX/4ij/hevw3/wChot/+/Ev/AMRXoNFAHn3/AAvX4b/9DRb/APfiX/4ij/hevw3/AOhot/8AvxL/APEV6DRQB59/wvX4b/8AQ0W//fiX/wCIo/4Xr8N/+hot/wDvxL/8RXoNFAHn3/C9fhv/ANDRb/8AfiX/AOIo/wCF6/Df/oaLf/vxL/8AEV6DRQBw9n8Zvh5fSiOHxXYKzHAM7NEPzcACuxtL61v7ZLixuYrmBxlZYXDq30I4NMvdLsNRjKahY212jDBWeFXBHpgiuE1L4TW+mXD6t8Nbs+F9W+8YYsmzuv8AYlh6AdsrgjOcGgD0WiuM8E+N5NfN1peuWf8AZXiLTSEv7BmyBnpJGf4o26g9unoT2QORQAtFFFABWJ4x8RxeEfB2p67OnmCygLrHnHmP0RfxYgfjW3XnvxbH2m18Kac3MN/4msoZ07PGC0hB9vkFAGp8OfCknhrw6Z9VIn1/VH+2arckfNJM3OzP91AdoHTj3rrqKKACiiigAoorz34ealfXvjzx/b3t7cXENpqkcdvHLKzrCpjyVQE4UZ7Chau3lf8AFL9Qeiv52/P/ACPQqKxvFHirTPCGj/2jrEkgRpFhhhhjMktxK33Y0Qcsx9KyvD3xG07XdbXR7rS9Y0LUpIjLBbaxaeQ1wg+8UIZgcdxnPt1oWuwPTc66ivPbz4zaDbTXrw6Xrt7plhI0Vxq9pYGS0Rl+8N+cnB4JAx745q9cfFPQoPC2ja0tvqNw+uLu0/Tbe3El3P3ICKccDkndgetG6v8A1rsGzt/Wh2lFchpHxJ0nVYdUEtlqemX+lW7XVxpuo23k3HlAE71GSrA4IyG69cZrET45eHn0+21T+yPEA0afZv1Y6f8A6LAWwMO+7+EnaSoYZ4BNHWwHpVFcp4l+IemeHdUttLisdT1rU7iH7QtlpFsJ5FizjzGyQAueMk81z3wv8VSeKvG3ji4S4vzZRXFqtvaXodGtT5REieW33DvByB3Heha3/rqkD0PTKKKKACiiigDzv4raTNY2lv470SMDVvD2ZZgvBurP/ltCx74GWGc4IOOtdlpGpQ6lp8F3bPvhnjWSNh/ErDIP5Grl5axX1jPaXChoriNonUjqrDBH5GvNPgreSzfC/RFnYs8UTQHJ/wCecjIB+S4oA9RFFNQ5WnUAFeffFH/kJeBf+xptv/Rcteg1578Uf+Ql4F/7Gm2/9Fy0AehUUUUAFFFFABXhvh34i+FfBHxM+IEHijVlsJLnVI3hUwSSbgI8E/Ipx1717lRQrp38rfin+g91bzv+f+Z4j8Rtb0vx7pHh/wAT+FtS1G50XRNWYajdaVG6XFqDGP3qh0ydmQSQp4P1qlocGieKfiNov/CL+JfFfir+z0mml1G8ugLfTy0e0A5gBZmzjaCOn1x73RSstf66WFd/16/8E8H8OeOdG8HfCK68E+IIbiHxHp9tdWz6WLWRmuSxch1IUqUYHO7OMZPTFYCaa1noPw48R6pqGs6VocWitaXGpaQcSWbsdys/yNhG6ZA9K9Rufhx4qmtbnSk+I9//AGHcl1eCexjmuhE+dyC5Zs9yASpIFd1pOl2uiaNZ6Xp0fl2tnCsEKk5wqjA57niqu3eT30/J3/PuD091ba/mrfkeG6Lb6Xq+veIdY0DVfEniK0svD1zbtrWp3KmFmYE+Qi+SpbGN2d2B6dK1NTRY/wBjpFRQo/sWA4HqWUn9TXtVFJ6xce//AAf8xxdpKXb/AIH+R4+Nas/h98UrvW/FbSW2ka3pFpHa6gYmeOKSIYaFioJUnO4Z4NXPhRrFr4g+IHxA1TToZYbW5ubJovNiMbSL5JAk2kAgNjcM9iK9Uop31b9fxdyErJL0/BWCiiikUFFFFABXkfwUP/FudN/663P/AKUSV65XkXwV/wCSdab/ANdbn/0okoA9ai+4KfUcP3BUlABXnvxR/wCQl4F/7Gm2/wDRctehV578Uf8AkJeBf+xptv8A0XLQB6FRRTJZY4IXlmcJHGpZmY8ADqaAH0VyY1TWNbBnspxplk3+q/dB5ZR/eOeFB7Un2TWP+hhuf+/Mf+Fb+wfVmXtV0R1tFcl9k1j/AKGG5/78x/4UfZNY/wChhuf+/Mf+FP2PmvxD2vkdbRXJfZNY/wChhuf+/Mf+FH2TWP8AoYbn/vzH/hR7HzX4h7XyOtorkvsmsf8AQw3P/fmP/Cj7JrH/AEMNz/35j/wo9j5r8Q9r5HW0VyX2TWP+hhuf+/Mf+FH2TWP+hhuf+/Mf+FHsfNfiHtfI62iuS+yax/0MNz/35j/wo+yax/0MNz/35j/wo9j5r8Q9r5HW0VyX2TWP+hhuf+/Mf+FH2TWByPENzntmGM/0o9j5r8Q9r5HW0VzNprd9pt9Dba48dxb3DhIrxE2bWPRXXpz2IrpqynBwepcZKWwV5F8Ff+Sdab/11uf/AEokr12vIvgr/wAk603/AK63P/pRJUFHrMP3BUlRw/cFSUAFee/FH/kJeBf+xptv/RctehV578Uf+Ql4F/7Gm2/9Fy0AehVheM2K+EbwDjcY0P0Mig/oa3awfGv/ACKd1/vxf+jVrSl/Ej6kT+BigBVAUYA4AHaloorqMAooooAKKKKACiiigAooooAKKKKACiiigDM8RoH8OXu7tEWHsRyP5V1VrIZbSGRvvPGrH6kVy3iD/kXb/wD64N/Kunsf+Qdbf9cl/kKyrfCi6fxMnryL4K/8k603/rrc/wDpRJXrteRfBX/knWm/9dbn/wBKJK5jc9Zh+4KkqOH7gqSgArz34o/8hLwL/wBjTbf+i5a9Crz34o/8hLwL/wBjTbf+i5aAPQqwfGv/ACKd1/vxf+jVrerB8a/8indf78X/AKNWtKX8SPqiKnwMdRRRXUYBXGWmvalL8ar/AEF7nOmQ6NHdJB5a8SmXaW3Y3dO2cV2deRav4R0Pxh8f7+08R2IvYIdCiljQyum1vNIzlSD0JqHfmjbz/JlK3LK/l+aOq8b69qWj+JPCFrp1z5MOpan5F0vlq3mJtzjJBI57jBq3r3xI8J+GtRaw1jV1iuo03yRRQyTNGPV/LVtvrzivP/Enw/8ADHg7x14HuPDeliyluNX2SsJpH3KFzj5mPeksvELNrHi2TTNe0DwbDHqUi3LXcZuLyd0GDIVkkACn+FQCOoA9Z5mk/V/lH/P/AIHUrlV16L83/kei3/xA8M6do9jqtxqW+xv8/Zp7e3lnD46/6tSRj3xzxUeg/Ebwv4m1Z9M0XUXnvEiMzRPaTRYQEAnLoB3FeceCPHVp4P8AgjYyI0d1qd5eXMNhbOyx+bIZW+ZugRBkFjwB07iuj0hdG8P+Dte1G/1Oz8Ra/e2kt1qZtrpS8+1D+6TacqijgY6dfam5Wu+iV/wvb/PQlRvZdb2/G39am0fi34GGoiz/AOEgh8wy+SJPKk8kv6ebt2fjuxV3XviD4X8M6gbHW9UFtdCJZvK8iR2ZGJAI2qc/dPTpjJrxXxPrE0nwTjjHirw9Z2UttGsGgaXb+bIwyCEZ3kZwV6sdvUHnmvRNHiil+OwmKq7J4VhKN1xmbnFNNt8vn+jf6dwdkr/1ul+p0Oq/EvwjolxBBqespDNNCs6xiGR2VGAIZwqnYMEfexVf4ZeIrzxN4dvr6/vFvNuqXMMEqKoUwq/yAbQARjv3rA8HaxpHh/xZ44tvE99aWGozao1xuvJFj821KDysFj8ygZGB0z71b+CL2kvgm+k0xdtk2sXbW6gYxGWG3jtxiiD5pX/u3/Ffj0+8JKyt5/o/6+49GoooqyTN8Qf8i7f/APXBv5V09j/yDrb/AK5L/IVzHiD/AJF2/wD+uDfyrp7H/kHW3/XJf5Cs63wIun8TJ68i+Cv/ACTrTf8Arrc/+lEleu15F8Ff+Sdab/11uf8A0okrlNz1mH7gqSo4fuCpKACvPfij/wAhLwL/ANjTbf8AouWvQq89+KP/ACEvAv8A2NNt/wCi5aAPQqwfGv8AyKd1/vxf+jVrerB8a/8AIo3Z7BoifYeYtaUv4kfVET+BjqKKK6jAKrLp9kupPqC2cAvXjETXIiXzGQHIUtjJGecdKs0UAVrnT7K9mt5ryzguJbV/MgeWJWaJv7ykj5T7iqs/hrQrrVF1K60XTpr9SCLqS0RpQR0+cjPH1rTopAY1x4P8M3iBLvw7pM6q7yBZbGJgHc5ZuV6nAye+KXT/AAl4c0m7F1pXh/S7K4AKia2so43APUZUA81sUUWSC7MeHwh4at/tH2fw9pUX2lCk+yyjXzVPUNhfmB9DV2HS9PtrsXVvY20VwsItxMkKq4iHITIGdo9OlW6KAM7UtA0bWJYpNX0mxv5If9U91bJKU+hYHH4VZs7C00+N47C1gtUkkaV1hjCBnbksQOpPc1YooAKKKKYGb4g/5F2//wCuDfyrp7H/AJB1t/1yX+QrmPEJA8OX2eP3LCuoslK2FurDBESgj04rOt8KLp/EyavIvgr/AMk603/rrc/+lEleu15F8Ff+Sdab/wBdbn/0okrlNz1mH7gqSo4fuCpKACvPfij/AMhLwL/2NNt/6Llr0KvPfij/AMhLwL/2NNt/6LloA9CqvqFlFqWnT2dxny5kKMR1Ge9WKKadndBucWl9c6KgtdeglHlDC3kcZeOUdiSPun1Bo/4SrRf+f9P++W/wrb1zxfoHht1TWtUgtZHG5YiSzkeu1QT+lY3/AAtrwX/0FpP/AABuP/jddSqNq7j/AF9xzuKTtzDf+Eq0X/n/AE/75b/Cj/hKtF/5/wBP++W/wp3/AAtrwX/0FpP/AABuP/jdH/C2vBf/AEFpP/AG4/8AjdHP/df9fIXKv5l/XzG/8JVov/P+n/fLf4Uf8JVov/P+n/fLf4U7/hbXgv8A6C0n/gDcf/G6P+FteC/+gtJ/4A3H/wAbo5/7r/r5Byr+Zf18xv8AwlWi/wDP+n/fLf4Uf8JVov8Az/p/3y3+FO/4W14L/wCgtJ/4A3H/AMbo/wCFteC/+gtJ/wCANx/8bo5/7r/r5Byr+Zf18xv/AAlWi/8AP+n/AHy3+FH/AAlWi/8AP+n/AHy3+FO/4W14L/6C0n/gDcf/ABuj/hbXgv8A6C0n/gDcf/G6Of8Auv8Ar5Byr+Zf18xv/CVaL/z/AKf98t/hR/wlWi/8/wCn/fLf4U7/AIW14L/6C0n/AIA3H/xuj/hbXgv/AKC0n/gDcf8Axujn/uv+vkHKv5l/XzG/8JVov/P+n/fLf4Uf8JVova+Un0CMSf0p3/C2vBf/AEFpP/AG4/8AjdH/AAtrwV/0F3HubK4A/PZRz/3X/XyDlX8y/r5gILnxPNHAttNb6Wrhp5plKNMByEVTzgnGTXZVn6Pr2leILU3Oi38F7Ep2s0T52n0I6g/WtCsKk3Jm0IpIK8i+Cv8AyTrTf+utz/6USV67XkXwV/5J1pv/AF1uf/SiSsyz1mH7gqSo4fuCpKACvPfij/yEvAv/AGNNt/6Llr0KvPfij/yEvAv/AGNNt/6LloA9CrG8Xa23hzwlqOqxqry28WYlboXJCqD/AMCIrZrjfiz/AMk11D/rrbf+lEdVHWSRMnaLZgaPosemRtNM32nUZzvuryTl5nPU57D0HYVp0UUm23djSSVkFFFFIYUUUUAFFFFABRRRQAUUUUAFFFFAGFrQ/wCEfmXxTpYEN3ZENcqgwLqHOHRwOvHIJ6ECvWkdZEV0IZWGQR3FeUeMf+RL1b/r1f8AlXpmj/8AIDsf+vaP/wBBFU9YkrSTLleRfBX/AJJ1pv8A11uf/SiSvXa8i+Cv/JOtN/663P8A6USVJR6zD9wVJUcP3BUlABXnvxR/5CXgX/sabb/0XLXoVee/FH/kJeBf+xptv/RctAHoVcb8Wf8Akmuof9dbb/0ojrsq434s/wDJNdQ/6623/pRHVQ+JEz+FlOiiipKCsnxJ4jtPC+lrf6hHNJE06QAQKC25zgHkjitauE+L/wDyJMP/AGErb/0YKOqXmvzDo/R/kd3RXnWpWupa78XLzRxrmpafpselRTyR2VwYyz7yBg87c9yME4AzWZoWj6vrmn+ILe98W62keiXs9pZPBc7JG2jdulcDMh5AwTjg+tK+l/V/c7Dtrb0/FXPWKK8ht9T13xT/AMIHCNaurBtTsbk3sttJsaQIFyQOm844OONxIratZ9R8IeNZ9CGsz6hY3ely3sEmrT+Y1tKhwd0nXyyOfaqem/n+F/8AIlaq68vx/wCHPRKK8H1TXLi18LHW9P8AEnivU9XjxLJdW8Ug0wPuGRtdFXZ2HHPH0rt7qXUPGHjuXRP7WvdK0/TrCG5lGnzeTLPLJyPn6hQOw70Wf9el/wBB/wBfkv1Ox1rW7LQLBbvUXZY2lSFQilizucKPzNaFeQeOfDer2fhSK31jXLu8t4dYgWxlFwwmMTsoxNwAzqR8rc9c+1er6fZjT9PhtFnuLgQoFEtzIZJH92Y8k+9JbX8/0T/UHvb+t3/kWKKKKAMXxj/yJerf9er/AMq9M0f/AJAdj/17R/8AoIrzPxj/AMiXq3/Xq/8AKvTNH/5Adj/17R/+giq+yT9ouV5F8Ff+Sdab/wBdbn/0okr12vIvgr/yTrTf+utz/wClElSUesw/cFSVHD9wVJQAV578Uf8AkJeBf+xptv8A0XLXoVee/FH/AJCXgX/sabb/ANFy0AehVxvxZ/5JrqH/AF1tv/SiOuyrjfiz/wAk11D/AK623/pRHVQ+JEz+FlOiiipKCsLxh4Z/4SvRE0/7X9k23MU/meXvzsbOMZHX1rdoo63AxIPDvk+OLrxF9q3faLJLT7P5f3drFt27PPXpj8aj0Twx/Y8euL9r87+1r2W7z5W3yt6gbep3Yx14+lb9FKytb+tXcd3e/wDWmh5HqHhK40zxH4D8P2WsSwXNna3nlX8UIBDBQwJQkgjsRnkV1dr4A89tTufE2rzaxf6hZtYtcCFYFhgPVUQZAOecknOPrnsaKe618/xEtNvL8Dzu5+Getah4YPh/UfGk8umpCIoIorCOMjb9zewOXAwOPlzjk1r6l4Lu5dRtNW0TXH0rVorVbSe4FsssdzGP70ZPXPIOeOnNdbRQBw0/w0Fz4ev7a41qeXV7+6ivJtUeFf8AWxkbMRggBQBjbnv1rsNOhu7fT4YtRu1vLpFxJcLEIhIfXaCcfTNWaKPIAooooAxfGP8AyJerf9er/wAq9M0f/kB2P/XtH/6CK8z8Y/8AIl6t/wBer/yr0zR/+QHY/wDXtH/6CKr7JP2i5XkXwV/5J1pv/XW5/wDSiSvXa8i+Cv8AyTrTf+utz/6USVJR6zD9wVJUcP3BUlABXnvxR/5CXgX/ALGm2/8ARctehV578Uf+Ql4F/wCxptv/AEXLQB6FXL/EjTrjVPh3qtvZxtJOsazIijJYxur4A75211FFNOzuJq6sec6dfwapp0F7aPvhnQOp/p9R0qxVi++G0K3k914a1a50R7ht8kEaLNAW7sI26E+xFU/+Ff8Aij/odo//AATp/wDHKqy6Mm76okoqP/hX/ij/AKHaP/wTp/8AHKP+Ff8Aij/odo//AATp/wDHKXKu4+Z9iSio/wDhX/ij/odo/wDwTp/8co/4V/4o/wCh2j/8E6f/AByjlXcOZ9iSio/+Ff8Aij/odo//AATp/wDHKP8AhX/ij/odo/8AwTp/8co5V3DmfYkoqP8A4V/4o/6HaP8A8E6f/HKP+Ff+KP8Aodo//BOn/wAco5V3DmfYkoqP/hX/AIo/6HaP/wAE6f8Axyj/AIV/4o/6HaP/AME6f/HKOVdw5n2JKKj/AOFf+KP+h2j/APBOn/xylHw/8T5+bxsmO+NIQH/0OjlXcOZ9jD8aTE+G5bCBTJd6kwtLaIDJd3OP0GTXrFrALWzht1ORFGqAnvgYrm9B8B2Wj6oNVvbu51bU1UrHc3RGIQRgiNFAVc/n711NDatZAr3uwryL4K/8k603/rrc/wDpRJXrteRfBX/knWm/9dbn/wBKJKko9Zh+4KkqOH7gqSgArz34o/8AIS8C/wDY023/AKLlr0KvPfij/wAhLwL/ANjTbf8AouWgD0KiisvxLcSWvh27khYq5UIGHUbmC5/Wpk+VNibsrla58S5neLSrNr3yzteXeEjB9AT1/CoP7e1f/oFwf+BP/wBamQQR21ukMK7UQYAqSsLze7MOaXcT+3tX/wCgXB/4E/8A1qP7e1f/AKBcH/gT/wDWpaKPe/mf4BzS7if29q//AEC4P/An/wCtR/b2r/8AQLg/8Cf/AK1LRR738z/AOaXcT+3tX/6BcH/gT/8AWo/t7V/+gXB/4E//AFqWij3v5n+Ac0u4n9vav/0C4P8AwJ/+tR/b2r/9AuD/AMCf/rUtFHvfzP8AAOaXcT+3tX/6BcH/AIE//Wo/t7V/+gXB/wCBP/1qWij3v5n+Ac0u4n9vav8A9AuD/wACf/rUf2/q466VAfYXP/1qWij3v5vyDml3Luna/HeXX2S6gezuiMrG5DBx/ssODWtXG6wuNOedDtlt8SxOOqsK7CKQSwpIOA6hh+NaU5NtpmkJN6MdXkXwV/5J1pv/AF1uf/SiSvXa8i+Cv/JOtN/663P/AKUSVqaHrMP3BUlRw/cFSUAFee/FH/kJeBf+xptv/RctehV578Uf+Ql4F/7Gm2/9Fy0AehVi+Lv+RYuf96P/ANGLW1WL4u/5Fi5/3o//AEYtZ1f4b9CZ/CytRXOXnis2HxA0/wAN3Vlsi1K1kmtr3zeHkQ/NFs2/3ec5/Cn+M/FI8JaEl6lob66nuYrW1tBJsM8rtgLuwccZPTtWfbz/AM7fmY2d7HQUUiklRuADY5AOcGsLXPE39i+ItA0r7J539szyQ+b5u3ydibs4wd2enUUdbC6XN6iiigAooooAKKKwdP8AE327xxq/h77J5f8AZsEE32jzc+Z5gJxtxxjHqc0B0ub1FUNau9QsdLefR9M/tS6DKFtftCw7gWAJ3twMDJ98YrJl8Vz/APCYan4etNM+0XFlpi30TfaAvnsxIEfIwvI+8T36Uf1+Fx2/r8DpaK51/FbWmqeHNL1LTZLbUNbjkZohKrrbGOMO6lh945IAIGDyfr0VOwilrH/IGu/+uTfyrqrP/jxg/wCua/yrldY/5A13/wBcm/lXVWf/AB4wf9c1/lRT+N+hdPdk1eRfBX/knWm/9dbn/wBKJK9dryL4K/8AJOtN/wCutz/6USVubHrMP3BUlRw/cFSUAFee/FH/AJCXgX/sabb/ANFy16FXnvxR/wCQl4F/7Gm2/wDRctAHoVYvi7/kWLn/AHo//Ri1tVi+Lv8AkWLn/ej/APRi1nV/hv0Jn8LPPvirp8zeGIdf09N1/wCHrlNRiA/iRT+8X6FM/lVI3cPjn4p6SbRvN0rQbJdRZuzXE6/ugfcJlvxr0KWJJ4XimUPHIpVlYZDA8EVz/gzwRpfgbTZ7PSHuJVnl8x5Lpw7nChVXIA+UAYA7VEXbf1Xrt/k15oxbuvw+X9XXzOf+GbBfD/issQANevyST05Fcd4U/wCQN8I/+vm8/k9egXXwv0i51a9u4tR1izt9QlM17p1remO2uXP3iygZ+bvgjNWdP+Hek6bbeHYLe4vCnh2SV7Te6EuZAQd+F5+8cYxTi0kr/wB38CpNa26834nE+FfAui+LtX8Zy+I4ZL2KLXriKCAzuiQnClnAUj5jkDJ/uiuf/tnWb/4beB9FUXeppqV5dQXMKXggluooXYLCZWIwCODzkhcV7VoXhy08Pyao9lJO51O+e+m81gdruACFwBhflHXJ96yF+GuhDwbb+HJDdyW9pO1xbXPmhbiCUuz71dQMEFjjj65pJ2SX+H8Nx81235v8b/8AAOJ8NadqXhz4i6RHpnhc+FtOvkmjvLKXWoZludqZV0i3liynGSoPB571U8CeHtEsfhRN4vvrl7PU4UvBDqbb5DZrveMBI9wB6kgd2avRdC+H+n6LrX9sXGo6prOorEYYrnVLnzmgQ9VQAADPc4z+Zqaw8C6PZeB5PCbCa60yRZFcTuN53uXPKgdCeOOwpyfutLe3+YlJX+a/U8W17TItH8L2OvaJ4R1fTryKaB28Q398sc8jM6gs0QkZm35PB6ZrtX8J6T4s+NviaHXle5tYLKzYWfmsiSMVOGYKRnbzjP8AerWufg7pN/pgsNU17xFqEMe37MLnUAwtip4ZBtC5xxlg3BOK0NV+Gmnap4kudfTVtZ0/U7iKOE3FjdCIqijGB8pyDxnOeQMYqnJfi/xQr6PXovzueaeIA+l+EPG/hm3nln0vSNTsPsXmyFzCsjoxiDHnCnp9a6fxF/yUTxr/ANij/WSunb4a6GfB8/h1XvFgurhbm5ujMHuJ5Qwbe7sDkkqM8fTFXr3wbp99rOqanNNcibU9O/s2ZVZdqx88r8uQ3zHkkj2qJaxt6/8ApKX5lRkk7+n/AKVc8rTwvo2sap8Kv7SsI7j7bpDpcbiR5gjt0ZAcHsST+NbDa2fhvfeNtKQfLIg1bSI/7zzERlAPaXbx6E119/8ADrTb3S9BtItQ1Oyl0GPyrK8tJ1SYLsCEMdpByAM8CsPVdMbxt8UtHaTQtQtLXw3JK899eQ+XHdNkeWsRz867lDZ7Y96ttSlbo739G7/5Exdoq/RL71/mtDoNC0AeGPhpBpJO6WG1Jnf+/K3zOfxYmvR7P/jxg/65r/KuV1j/AJA13/1yb+VdVZ/8eMH/AFzX+VTF3qNhT0ZNXkXwV/5J1pv/AF1uf/SiSvXa8i+Cv/JOtN/663P/AKUSVsbnrMP3BUlRw/cFSUAFee/FH/kJeBf+xptv/RctehV578Uf+Ql4F/7Gm2/9Fy0AehVi+Lv+RYuf96P/ANGLW1VLWbE6lo1zaIQHkT5SegYHI/UCoqJuDSJkrxaMmiqllfLcL5Uw8q6j+WWFuGU/T0q3WKaaujnCiiimMKKKKACiiigAooooAKKKKACiiigClrH/ACBrv/rk38q6qz/48YP+ua/yrkbxv7TkGlWR3yzECVl5ESdyT/SuzVQqhVGABgCnT1k2XT3bFryL4K/8k603/rrc/wDpRJXrteRfBX/knWm/9dbn/wBKJK3Nj1mH7gqSo4fuCpKACvPfij/yEvAv/Y023/ouWvQq89+KP/IS8C/9jTbf+i5aAPQqKKrajf2+labcX99J5dvbxmSRvQAZpN2V2VGLlJRirtjL7SLDUsG9tY5WAwGIwwH1HNUf+ER0T/nzb/v/ACf/ABVeez6nrvijN3f6jdaXaScwWNlJ5TKnYyOPmJI7ZwKr/wBiH/oLax/4MJP8a4pVoyd1C576yKK/i1EpeSv+On4aeZ6V/wAIjon/AD5t/wB/5P8A4qj/AIRHRP8Anzb/AL/yf/FV5r/Yh/6C2sf+DCT/ABo/sQ/9BbWP/BhJ/jU+0j/z7X9fIf8AYVD/AJ+/+S/8E9K/4RHRP+fNv+/8n/xVH/CI6J/z5t/3/k/+KrzX+xD/ANBbWP8AwYSf40f2If8AoLax/wCDCT/Gj2kf+fa/r5B/YVD/AJ+/+S/8E9K/4RHRP+fNv+/8n/xVH/CI6J/z5t/3/k/+KrzX+xD/ANBbWP8AwYSf40f2If8AoLax/wCDCT/Gj2kf+fa/r5B/YVD/AJ+/+S/8E9K/4RHRP+fNv+/8n/xVH/CI6J/z5t/3/k/+KrzX+xD/ANBbWP8AwYSf40f2If8AoLax/wCDCT/Gj2kf+fa/r5B/YVD/AJ+/+S/8E9K/4RHRP+fNv+/8n/xVH/CI6J/z5t/3/k/+KrzX+xD/ANBbWP8AwYSf40f2If8AoLax/wCDCT/Gj2kf+fa/r5B/YVD/AJ+/+S/8E9K/4RHRP+fNv+/8n/xVH/CI6J/z5k/WeQ/+zV5r/Yh/6C2sf+DCT/Gj+xWH3dY1gHsRqEnH60e0j/z7X9fIP7Cof8/f/Jf+Ceu2lja2EXl2dvHAhOSEXGfr61PXl2leKNU8Mahbx6vfS6los7iJ5rn5prRjwGLD7y54OeR/P1GuulUjNaaWPLxmBng5JNpp7Nbf8Ouq/QK8i+Cv/JOtN/663P8A6USV67XkXwV/5J1pv/XW5/8ASiStThPWYfuCpKjh+4KkoAK89+KP/IS8C/8AY023/ouWvQq89+KP/IS8C/8AY023/ouWgD0KuR+KTFfhvqW043NAp9wZkBH5V11ch8VP+Scah/10t/8A0fHWNf8AhS9Gejlf+/0P8cfzRztFFFcR9SFFFFABRRRQAUUUUAFFFFABRRRQAUUUUAZXidQ3hfUQef3DGvXdOkabS7WSQ5d4UZj6kqK8j8S/8ivqP/Xu38q9a0n/AJAtl/17x/8AoIrbD/G/RfqebnH+60/8UvyiW68i+Cv/ACTrTf8Arrc/+lEleu15F8Ff+Sdab/11uf8A0okrtPlz1mH7gqSo4fuCpKACvPfij/yEvAv/AGNNt/6Llr0KvPfij/yEvAv/AGNNt/6LloA9CrkPip/yTjUP+ulv/wCj466+uQ+Kn/JONQ/66W//AKPjrGv/AApejPRyv/f6H+OP5o52iiiuI+pOJ1vWW0z4pacLq/e201dLmmnRpSsWQ33iOhNN0SbVPG+rRa61zc6f4egY/YraGVo3vSDjzJdpztyOF79/el4o0ax1z4xaFbapCJ7dLCSUxN91yrZAYdxnnHtTrWQ/DjxYNPmJXwzrEpNq5Py2Vweseeyt2/8ArE1tFLlj3s7fe/x7f52POnKSqT5vgur/APgMfw7/AOV77N94/sLXULm1s9N1bVBZtsuZtPtfMjhYdVLZGSO4GauR+MdKmvNHit2kmi1lXa1uUUeWSoyVbJyG9sdq8ysFsfDb6lYeJvEviDRL1LuWWOC0fEd0jNlXj/dtknp161tDw/Pb/CG2urK0u7W9024OqW0N5KJJVKuWIJCr95cnGO9JRjZN+X4/5f8ADgq9WUmlvrp6f57a97o78a7bN4nOhJHK9ytt9qkdQNkaltoBOc5PYY6VzfxGkuTJ4cs7a/vLJL3Vo4Jns52icoynIyKn8AK2pW+o+J50ZZNauN8St1S3T5Ix+QJ/GqXxOs7fUJvC1nexCW3n1mKOSM9GUqwIpKNpxT7r8/6RrObnQlNbO9vTp9+/zKni/QX8K+GrnWbHxbrkN1agPCt3qBljlbPCFG4bNblvq8MnibSf7Qm1C2vptINxJbBwLVRwWLqed4JwD6VznifwNp3hJ7fxT4Y0iCT+z233dk6+YssXd03Z2uvXI/8A13JdRt9Y+I2lX+mqt5Bc6BO8SFtoky4+Unt6H0p7x08/yf5mWsJ2at8Om9/eWvTb+uhop8S9Lby5203V49NlkEaam9ni2bJwG3ZzgnjOKZFrg0/4heJX1S/eLTbOxtpdskh8uLIOSF6Anjpya4S31hNHsI18Ha5qtnqocL/wi93C1yqNu5iUlRtUcnd/WtTXfC0/in4ha8Irl7e9tLK1uIIgQYnmAJXeDwRwR+NVypemv5f1sZ+3qSWmr0/4by9Grnpmi6qNa0uK/js7q0jm5jS6QK7L2bAJwD2zg+1X6w/CXiNPE2hJdGPyLuJjDeWx6wzLwykfqPY1uVlJWdj0aUuaCle5l+Jf+RX1H/r3b+VetaT/AMgWy/694/8A0EV5L4l/5FfUf+vdv5V61pP/ACBbL/r3j/8AQRV4f+I/RfqcOcf7rT/xS/KJbryL4K/8k603/rrc/wDpRJXrteRfBX/knWm/9dbn/wBKJK7j5c9Zh+4KkqOH7gqSgArz34o/8hLwL/2NNt/6Llr0KvPfij/yEvAv/Y023/ouWgD0KuQ+Kn/JONQ/66W//o+OuvrkfikrN8N9TKjOwwuceizIT+gNY1/4UvRno5X/AL/Q/wAcfzRzlFAORkdKK4j6kKKKKACsTxNomoa7ZpaWOtSaXA+5LoRwLI00ZGCoY/cOM8j1rbooFJKSsyGztIbCxgs7RBHBbxrHGo7KBgCpqKKG23dgkkrIKKKKBhRRRQAUUUUAZfiX/kV9R/692/lXrWk/8gWy/wCveP8A9BFeR+KHCeFtQLHAMJH4ngfzr1/Tomh0u1ikGHSFFYehCgVth/jfov1PNzj/AHWn/il+USxXkXwV/wCSdab/ANdbn/0okr12vIvgr/yTrTf+utz/AOlEldp8uesw/cFSVHD9wVJQAV578Uf+Ql4F/wCxptv/AEXLXoVee/FH/kJeBf8Asabb/wBFy0AehVXv7G31PTrixvYxJb3EZjkQ91IwasUUPXRjjJxalF2aPJptB8ReGP8ARX0+fWrCMYgurPDS7eyvGTkkDuKrf2le/wDQs+IP/BbJXsVFcn1b+WR9DHPG1erSTfdNq/y2+63oeO/2le/9Cz4g/wDBbJR/aV7/ANCz4g/8FslexUUvqz/m/Af9tQ/58/8AkzPHf7Svf+hZ8Qf+C2Sj+0r3/oWfEH/gtkr2Kij6s/5vwD+2of8APn/yZnjv9pXv/Qs+IP8AwWyUf2le/wDQs+IP/BbJXsVFH1Z/zfgH9tQ/58/+TM8d/tK9/wChZ8Qf+C2Sj+0r3/oWfEH/AILZK9ioo+rP+b8A/tqH/Pn/AMmZ47/aV7/0LPiD/wAFslH9pXv/AELPiD/wWyV7FRR9Wf8AN+Af21D/AJ8/+TM8d/tK9/6FnxB/4LZKBqV8TgeGfEBPb/iXOP1NexUUfVn/ADfgH9tQ/wCfP/kzPMdJ8I6t4i1G3n8QWf8AZ2k28gl+ySOGlumHI3YOFUHseTivTqKK3p01TWh5WMx1TFyTkkktktl/wX1YV5F8Ff8AknWm/wDXW5/9KJK9dryL4K/8k603/rrc/wDpRJWpwnrMP3BUlRw/cFSUAFee/FH/AJCXgX/sabb/ANFy16FXnvxR/wCQl4F/7Gm2/wDRctAHoVFFI7rGjPIwVFGWZjgAetAC0V5D46/aL8K+FvMtNDP9v6iuRttnxAh/2peQf+Ag/UVx3wu+JVz438aXHiD4h+K9M0rTtNGLHSnvEtonlbPz7GbLhRnls8sMdKAPo+iub/4WP4I/6HLw/wD+DSD/AOKo/wCFj+CP+hy8P/8Ag0g/+KoA6Siub/4WP4I/6HLw/wD+DSD/AOKo/wCFj+CP+hy8P/8Ag0g/+KoA6Siub/4WP4I/6HLw/wD+DSD/AOKo/wCFj+CP+hy8P/8Ag0g/+KoA6Siub/4WP4I/6HLw/wD+DSD/AOKo/wCFj+CP+hy8P/8Ag0g/+KoA6Siub/4WP4I/6HLw/wD+DSD/AOKo/wCFj+CP+hy8P/8Ag0g/+KoA6Siub/4WP4I/6HLw/wD+DSD/AOKo/wCFj+CP+hy8P/8Ag0g/+KoA6Siudj+IfguWRY4vF+gu7kKqrqcJLE9ABuroqACvIvgr/wAk603/AK63P/pRJXrteRfBX/knWm/9dbn/ANKJKAPWYfuCpKjh+4KkoAK89+KP/IS8C/8AY023/ouWvQq89+KP/IS8C/8AY023/ouWgD0KkdFkjZJFDowwysMgj0paKAPIfHX7OfhXxR5l3oY/sDUWyc26Zgc/7UfAH/AcfQ1yXwp+H+p+APGtx4e8eeHLLUdM1MZs9T+zrcQpMv8ADuK5TcueGxkqMda+i6KAMT/hCvC3/QtaP/4ARf8AxNH/AAhXhb/oWtH/APACL/4mtuigDE/4Qrwt/wBC1o//AIARf/E0f8IV4W/6FrR//ACL/wCJrP8AAPii98VWWszahFbxtYazc2EQgVgDHGQFJyT83POMD2re1TWtL0O1FzrWpWenQM20S3c6xKT6ZYgZo6J97fiHVoo/8IV4W/6FrR//AAAi/wDiaP8AhCvC3/QtaP8A+AEX/wATWnb6jZXWnrf2t5bzWbJ5i3McqtGV/vBgcY96paX4q8Pa5cvb6LrumajOi7nitLyOVlHqQpJAo62Dpch/4Qrwt/0LWj/+AEX/AMTR/wAIV4W/6FrR/wDwAi/+JrP8ZeOtM8OaHrH2TVdLbW7KyluIdPmuFMjMqFhmMMGI47Y4q7H4u0my8PaXf+JNW07S3v7aOUfablIVZigJC725xn3oWv8AXe/+Qbf1/Xcf/wAIV4W/6FrR/wDwAi/+Jo/4Qrwt/wBC1o//AIARf/E1sQTxXNvHPbSpNDIoZJI2DK6noQR1Fc1onj/Rtd8aaz4btLm3N1pZjXi5RjcEqS+xQc4Q4VvQ5BxR1sHS5d/4Qrwt/wBC1o//AIARf/E0f8IV4W/6FrR//ACL/wCJqe08T6BqGqPpthrmm3N/Hnfaw3cbyrjrlAcjH0rUoAxU8G+GI3V4/DmkKynKstjECD6/draoooAK8i+Cv/JOtN/663P/AKUSV67XkXwV/wCSdab/ANdbn/0okoA9Zh+4KkqOH7gqSgArz34o/wDIS8C/9jTbf+i5a9Crz34o/wDIS8C/9jTbf+i5aAPQqKKKACiiigAooooA8q+FOv6Nplj4og1LVrG0mPia+by7i5SNsbhzgnOKyvGFzcXXxw065iXw/fWbaLu0ptaumS2aQy/vGiZUcNJjb77a9KuPAHg67uZLi68J6HNPK5eSWTTYWZ2JySSVyST3q7ceGdBu9Jh0u70TTp9Pgx5NpLaRtDHjptQjA/AUltHyt+VhveXn/nc8Ts7/AE7R/BfjiTWLfSdW0SbUrdF0rRrydbSGd9odTM0aKqFtjNt3AcgjnBn+1uPjX4ISaLwnZuGuVjg0GYyyrGbdtolbao25xtGPXFe1RaJpUGkHSodMs49OKlDZpbqISp6jZjbj8KrWfhLw5pwiGn6BpdqIZfPiEFlGnlyYxvGBw2CRkc4NPr935W/r7vMl6prvf8TxCJfCP/DPniAeJhYL4jDXn277TsF19u3vs6/Nn7uMds+9a97YxvrukXui634fXW18OWsUuleJLZjA8GCQ8cnBBzuBC5969ZvPCvh7UdQe+1DQdMurx0MbXE9nG8jKRtKliMkYOMelO1HwxoGrwW8GraHpt9FbLtgjubSORYh0woYHaOB09KP+B+Ca/X7tPMp6v7/xaf6fr5HN/CHULPUPh/F/ZulRaXb211PbiG3uGngZlkO54nbkxliSOw6DpXFawjw618YY9HWOPVWsrZ7ZYwBKVNqd5Tv69O9e021tBZ20dvaQxwQRKFjiiQKqAdAAOAKrNo2lvrCas+m2bakieWt6YFMyr/dD43AcnjNKa5r+at+X+QQfK7+d/wATxnxOfBg+Fnhs+Cf7O/tn7TZf2P8AY9n2nzd6b87fmzjdvz36817nWXaeGNA0/VH1Kw0PTba/kzvuobSNJWz1y4GTn61qVble/m7/AJf5EJW08rBRRRUlBXkXwV/5J1pv/XW5/wDSiSvXa8i+Cv8AyTrTf+utz/6USUAesw/cFSVHD9wVJQAV578Uf+Ql4F/7Gm2/9Fy16FXnvxR/5CXgX/sabb/0XLQB6FRRRQAUUVkv4n0lfEMWhxXaz6lICTbw/OYlAyWcjhR9eTkYFJtLcTklua1FFFMYUUUUAFFFFABRRRQAUUUUAFFFFABRRRQAV5F8Ff8AknWm/wDXW5/9KJK9dryL4K/8k603/rrc/wDpRJQB6zD9wVJUcP3BUlABXnvxR/5CXgX/ALGm2/8ARctehV578Uf+Ql4F/wCxptv/AEXLQB6FTJXaOF3SNpWVSRGpALn0GSBk+5Ap9FAHzt8Rvid4ye8l0t7K48N25yPLGRLKvr5np/u8e5pfgtc6lYtqt7o3hw61dtsjkk+3xQmFDk4w3J3Edf8AZr33U9J0/WbJrTVrOG8gbrHMgYfUeh9xXH6J8Mbbwn4sTV/C15Jb20qmO6sJyXR0P91uoIIBGc9xkZrgdCoqqnzX/r7jzJYaqqyqc11+K/Qtf8JJ41PTwCB9dZh/wo/4SLxwf+ZEhH11uP8A+IrsaK6+SX8z/D/I7vZy/nf4f5HHf2746PTwXaL9dYU/+yUf2z49PTwnpy/XVc/+yV00Gq6fdajc6fbX9rNe2oU3FtHMrSQhhkblByuR0z1qPUdd0jR5beLV9UsrCS6bZAl1cJEZW44UMRuPI4HrRyP+Z/h/kHs5fzP8P8jnf7U+IB6eG9JX66kx/wDZKP7Q+IR6aHoi/W/c/wDsldFY67pGqXlzaaZqlleXNodtxDb3CSPCckYdQSV5B6+lX6OR/wAz/D/IPZv+Z/h/kcd9r+Ip6aV4eX63kp/9ko8/4kHpZeGV+txOf/Za7Gijkfdh7N/zM47f8Sz0h8KD6y3J/wDZaP8Ai5Z/6FQf+BJrsaKPZ+bD2f8AeZx234lH/lr4UH/bK5P/ALNR5HxIPW98Mr9Lec/+zV2NFHs/Nh7Lzf3nIxWvxC85DPqegeXuG8JaS5I74y1ddRRVRjylRjy9QryL4K/8k603/rrc/wDpRJXrteRfBX/knWm/9dbn/wBKJKos9Zh+4KkqOH7gqSgArz34o/8AIS8C/wDY023/AKLlr0KvPfij/wAhLwL/ANjTbf8AouWgD0KiiigAooooAKq6pqNvo+kXepXr7Le0heeVvRVBJ/QVarlviF4c1Hxd4XGh6dNBBBd3UIv3ldlJtgwaRUwDljgDBwME80ndqyGrX1PHfCfiHSNE8Q+GfFza/ps2p+JLueHXLSG9jkkiW4bfBlAcgRlVU5HGTXVa/Y+JLz9oQCxl0Jni0EyWv26zklEUfnAHOJB+83fxDAxxjvXceLvAumeIvBmpaNa2VpazXFuUt5liC+VIOUbIGQAwB4qhovhXX4/G2n+IdduLGSWLw8NNuvIkdi9x5ocuuVHykD2OT070S2sul7ejTsvv/MWtm3u7X9br9PyPOfAHibVPCPwp8OQWVvo02qeIbmSHT2kRoVjVXdpJbl8kvjttwcECu70j4hX1jruoaP4xfS55bfTn1OC90YsYpYU4kQozMVccHqQQe1ZJ+EN6/wAN/DOmTtpFzrPh6WWWNLyE3FlcB2bdG4Kg4II5xkEcVoeHfhvcJqWo3Ou6X4Y0m2urF7JLLw/YIpw4w7tO0avnHG0YX1yaqTbcref5afj/AMHQemny/PX8P6uSaL4i+Iuq2Gma/Ho+iTaTqDJINOildbuK3fGHMrMI2YA7iuB6A5rltE8U+J/CukfETXb82WprZaxInlJHKpWXEK78lmxCqnO0Ang810dh4Q8fQ6TpvhmfXNNttE0+SJTqNi00d9PbxEbYyv3UJChWYMeO3XNi38IeMNKvvFS6Dqmm2kGr3p1GzunRpJUmIjDRSRldvlkIw3BtwznFJ2u7ba/mv+D5/gJXsr91+v8AwP6uT+CPFeva7qpju7rw5rWmNb+Z/aGgzkfZ5cj93JG7s3IOQRjGOQM13lea+Hvh9q0fxBs/E+sWPh3R3s7eWMxaCj5vHkABaVmVeBjIGCc969KpvZf11Et2FFFFIYUUUUAFeRfBX/knWm/9dbn/ANKJK9dryL4K/wDJOtN/663P/pRJQB6zD9wVJUcP3BUlABXnvxR/5CXgX/sabb/0XLXoVee/FH/kJeBf+xptv/RctAHoVFFFABRRSEhepA5xzQAtFFFABRRRQAUUUUAFFFFABRRRQAUUUUAFFFFABXkXwV/5J1pv/XW5/wDSiSvXa8i+Cv8AyTrTf+utz/6USUAesw/cFSVHD9wVJQAV578Uf+Ql4F/7Gm2/9Fy16FXnvxR/5CXgX/sabb/0XLQB6FTZJEhieWZ1jjRSzOxwFA6knsKdRQB5T4t+O2j6VvtvDcX9q3Q485srAp+vVvwwPeqvwouNd8c65c+KfEt489vZMYbO3HyxJKR8zBBxlVOMnJ+brxXTeLfhH4b8Ub544P7Mvm5+0WqgBj/tJ0b9D71g/Dnwv4j+HfiefTNQj+2aNqI/d3dvlljlX7pZeqZHB7Z281wtVvapz+HyPNca/t06msfLb5nXn4meDAcHxDZ/99H/AApP+Fm+DP8AoYrP/vo/4V0f2K1/59of+/Yo+w2n/PrD/wB+xXVap3X3f8E7bVe6+7/gmbo3i7QPENy9vouqQXk0ab3SInIXOM/mRWzUcdvDCxMUMcZIwSqgVJVq9tS481veCudvvH/hXTL6Wzv9btYLmFtskbk5U+h4roqha0tnYs9vEzHqSgJNKXN0CXNb3Tm/+Fm+DP8AoYrP/vo/4Va07x54X1fUIrHTdatrm6mJEcSE5bAJPb0BrZ+w2n/PrD/37FOS1t43DRwRKw6FUAIqUp9Wvu/4JCVS+rX3f8ElooorQ1MTWPGPh7QLxbTWdVt7O4ZBII5CclSSAfzBqh/ws3wZ/wBDFZ/99H/CumktoJm3Swxu2MZZAaZ9htP+fWH/AL9ioanfRr+vmZtVL6Nfd/wTn4/iT4OmlSOLxBZs7sFVQx5J6DpXT1CLK1ByLaEH/rmKmpx5vtFR5vtBXkXwV/5J1pv/AF1uf/SiSvXa8i+Cv/JOtN/663P/AKUSVRR6zD9wVJUcP3BUlABXnvxWIim8F3DcJD4qstxPYMJEz+bCvQq5L4l+HJvFPgLUdOsiEvtqz2b9Ns0bB057ZK4z6E0AdbRWF4M8UW3jDwnZaxa/I0ybZ4T96CZeHjYdiGyPpg963aACiiigDO8RXU1j4X1S7tX8ue3s5pY3wDtZUJBweDyK5bSviNpOleBvC174y1ZYb/WNNScMYGPnuI0Z8BFwDlhhRjJOADXR+Lf+RK1v/sHz/wDotq8p0lFfV/ghvUNjSrgjIzgi0j5ojq2vT8pf5BLRJ+v6HcN8YPAq2JujroKq7pJGtpOZotuNxeIJvQDI+ZlA960NW+IfhTQ7XTrnU9Zhig1SJprKRUd1nVQCdpUHnDLgdTnABNc54Zgi/wCFo/E1vKTLfYQTtHINqc153our6domn/BvUdbBNpBa6gWk8syeT8qgOQASAvr2HPakne3y/FN/oH/B/Cx7dpHjjw3rul3uoadqsLW1gT9saZWha2wMnzFkCsvAPJA6VR0j4oeENc1a203TtWLXV2CbZJrWaETgcnYzoFb8Ca871XXI9R1nxp408NaPHr2ixaLDZFJbctBfzrKSW2kfvEjQ8kdhgHvWVfeKX13xd4ImPi61123j1q3LQabo7W9vaMysFDSszHcc4CEg4BJHFVHWSXe34u3/AAV+YpaJv1/BJ/8AAPWtY+J3g/QdWm03VNZWK5t9vnhIJZFg3dPMdFKp/wACIqjB8TLCf4pyeFU5t1sFuEulglYPIxJxvC7AmwZ352knGcjFcloXi3RPAul+KdC8WQM2sTapeXCae9uztqqTNmPZ8pEgYEL3xjkVLHe2dh8UhFrumf2YureEYoLfSocHc4dy1tGQFBYA4xx26VKeifl+PK3b5P8ArvT6r+t0rnbaZ8TvB+satDpun6yslxcOyW5aCVI52XqI5GUI5/3Sc9q6e5uYLO1lubuaOCCFC8ksjBVRQMkkngADvXz9o+uRWN14c0zwn4ibxNbJfQxxeGNa0pWu9NUHDP5oAMbRDOCeB2JFep/FrS7/AFn4V63ZaTBJcXLxIwgjzulVZFZ0GOpKqwx3zinLSN1/X9fMUdZWf9f18ixovxM8IeIdUi07StYWS6nDNAskEsQnA6+WzqA//ASarXvxc8D6fc3Vvda4Fls53guVW1mfyHRtrb9qHaueNx+U84JxXIeJPFmhePV8LaP4KZrvUoNWtbsxxQOp02KI/vGkyAEwPlweueM1Z8DQRP4X+JoeNT5mvamr8feGwcH86UnZN9k/na3+fnsOKu0u9vle/wDl+J6rBPFdW8dxbSpNDKgeORGyrqRkEEdQRUlcl8K2LfCXwuWJJ/syEc/7grrauceWTREHzRTGySLFG0khCogLMT2AryX4KKR8NdIZhgyCWXHoGldv610nxZ186T4In02xbdq2u506wiBwS8g2s/sEUlie3HrT/COkxaPo1lp1t/qrSBIVOOoUAZ/HFSUdjD9wVJTIhhRT6ACmSLuU0+igDy3WtL1jwJ4nuvFPhC0N9ZXpDaxoqHBmI/5bw9hLjqP4vrzXa+GPGeg+MLMz6Dfxzun+ut2+SaA91eM8qc8enpmtS4txIp4rhvEvw50PXbr7Zd2Ijvl+5e2zmGdfT50IP55FAHoVFePH4f6lDxF478ZIPQ6ru/8AQlNJ/wAINq//AEP3jH/wYr/8boA9iorxz/hBtX/6H7xj/wCDFf8A43R/wg2r/wDQ/eMf/Biv/wAboA9jrndZ8Kf2v428OeIPtvk/2H9p/wBH8rd5/nIE+9kbcYz0OfavPv8AhBtX/wCh+8Y/+DFf/jdH/CDav/0P3jH/AMGK/wDxujrcD2OivHP+EG1f/ofvGP8A4MV/+N0f8INq/wD0P3jH/wAGK/8AxugD2OivHP8AhBtX/wCh+8Y/+DFf/jdH/CDav/0P3jH/AMGK/wDxugD2OivHP+EG1f8A6H7xj/4MV/8AjdH/AAg2r/8AQ/eMf/Biv/xugD2OivHP+EG1f/ofvGP/AIMV/wDjdH/CDav/AND94x/8GK//ABugD2OuV8X/ABE0PwenkXMxvdVkH+j6VaDzLiZj0G0fdH+0cD69K4Vvh/fTjbd+NfF9xGeGjfViqsPQ7VHFbPh/wNpOgbv7I06K3eT/AFk3LSSf7ztlj+JoAydD0fVta8RyeK/GAj/tWVPKtLOJt0enQ/3FPdz/ABN36DivSdNtdigkVFZabswSK2Yowi8UAPUYFLRRQAUUUUAFRvEG6ipKKAKrWaHtTPsCelXaKAKX2BPQUfYE9BV2igCl9gT0FH2BPQVdooApfYE9BR9gT0FXaKAKX2BPQUfYE9BV2igCl9gT0FH2BPQVdooApfYE9BR9gT0FXaKAKX2FPSpEtEXtVmigBqoFp1FFABRRRQB//9k=;" parent="1" vertex="1">
          <mxGeometry x="-1040" y="-600" width="90" height="256" as="geometry" />
        </mxCell>
        <mxCell id="_F0MfmOvoYsbLBurmLUC-4" value="&lt;div&gt;Impact Chain&amp;nbsp;&lt;/div&gt;&lt;div&gt;BOLZANO - heat-stress&lt;/div&gt;&lt;div&gt;multi-risk&lt;br&gt;&lt;/div&gt;" style="text;strokeColor=none;fillColor=none;html=1;fontSize=24;fontStyle=1;verticalAlign=middle;align=center;" parent="1" vertex="1">
          <mxGeometry x="-810" y="-590" width="100" height="40" as="geometry" />
        </mxCell>
        <object label="&lt;b&gt;Residential buildings&lt;/b&gt;" Description="In Genoa a total of XXX residential buildings can be found, distributed according to the layer shown. Most of these buildings have been built before 1970...&#xa;Description of the number of residential buildings according to the prevalent category of buildings and / or numbers of structures. (to be discussed)" Type="Exposure" Layer="name of the corresponding layer (if applicable)" File="name of the geospatial file describing this component (if applicable)" Source="Source of the knowledge/information about this element (Literature, expert judgement, other)" References="Cited references (scientific papers, news item, etc." Confidence="Confidence on the knowledge/information about this element. It can be evaluated in accordance with the following categories: low (limited evidence), medium (moderate evidence) or high (robust evidence)." id="_F0MfmOvoYsbLBurmLUC-37">
          <mxCell style="rounded=1;whiteSpace=wrap;html=1;strokeWidth=1;fillColor=#fff2cc;strokeColor=#d6b656;glass=0;shadow=0;" parent="1" vertex="1">
            <mxGeometry x="-870" y="-180" width="120" height="60" as="geometry" />
          </mxCell>
        </object>
        <object label="Risk to financial condition of residential population" Description="Description of the (key) Risk" Type="Risk" Layer="name of the corresponding layer (if applicable)" File="name of the geospatial file describing this component (if applicable)" Source="Source of the knowledge/information about this element (Literature, expert judgement, other)" References="Cited references (scientific papers, news item, etc." Confidence="Confidence on the knowledge/information about this element. It can be evaluated in accordance with the following categories: low (limited evidence), medium (moderate evidence) or high (robust evidence)." id="_F0MfmOvoYsbLBurmLUC-41">
          <mxCell style="rounded=1;whiteSpace=wrap;html=1;strokeWidth=1;fillColor=#f8cecc;strokeColor=#b85450;glass=0;shadow=0;" parent="1" vertex="1">
            <mxGeometry x="-390" y="250" width="120" height="60" as="geometry" />
          </mxCell>
        </object>
        <object label="Leads to" Description="contributes to the risk [please substitute with your text!]. " References="Cited references (scientific papers, news item, etc." Source="Source of the knowledge/information about this element (Literature, expert judgement, other)" Confidence="high (robust evidence)." Time_Lag="weeks to months&#xa;" id="_F0MfmOvoYsbLBurmLUC-51">
          <mxCell style="endArrow=classic;html=1;rounded=1;exitX=0.5;exitY=1;exitDx=0;exitDy=0;jumpStyle=arc;edgeStyle=elbowEdgeStyle;elbow=vertical;entryX=0.5;entryY=0;entryDx=0;entryDy=0;" parent="1" source="GEd216P_miA6AbYHsWlQ-2" target="_F0MfmOvoYsbLBurmLUC-79" edge="1">
            <mxGeometry x="0.018" width="50" height="50" relative="1" as="geometry">
              <mxPoint x="-160" y="40" as="sourcePoint" />
              <mxPoint x="-170" y="130" as="targetPoint" />
              <mxPoint as="offset" />
              <Array as="points">
                <mxPoint x="-410" y="90" />
              </Array>
            </mxGeometry>
          </mxCell>
        </object>
        <object label="Residential population" Description="Description of residential population in terms of no of inhabitants per square km" Type="Exposure" Layer="name of the corresponding layer (if applicable)" File="name of the geospatial file describing this component (if applicable)" Source="Source of the knowledge/information about this element (Literature, expert judgement, other)" References="Cited references (scientific papers, news item, etc." Confidence="Confidence on the knowledge/information about this element. It can be evaluated in accordance with the following categories: low (limited evidence), medium (moderate evidence) or high (robust evidence)." id="_F0MfmOvoYsbLBurmLUC-55">
          <mxCell style="rounded=1;whiteSpace=wrap;html=1;strokeWidth=1;fillColor=#fff2cc;strokeColor=#d6b656;glass=0;shadow=0;fontStyle=1" parent="1" vertex="1">
            <mxGeometry x="-870" y="30" width="120" height="60" as="geometry" />
          </mxCell>
        </object>
        <object label="&lt;b&gt;Impacts on&lt;/b&gt;" Description="Residents of the damaged buildings are affected by the inagibility [please substitute with your text!]" References="Cited references (scientific papers, news item, etc." Source="Source of the knowledge/information about this element (Literature, expert judgement, other)" Confidence="high (robust evidence)." Time_Lag="not applicable" id="_F0MfmOvoYsbLBurmLUC-63">
          <mxCell style="endArrow=classic;html=1;rounded=1;exitX=0;exitY=0.5;exitDx=0;exitDy=0;strokeColor=#006600;dashed=1;dashPattern=12 12;edgeStyle=elbowEdgeStyle;jumpStyle=arc;jumpSize=7;entryX=1;entryY=0.5;entryDx=0;entryDy=0;" parent="1" source="GEd216P_miA6AbYHsWlQ-2" target="_F0MfmOvoYsbLBurmLUC-55" edge="1">
            <mxGeometry x="0.0031" y="1" width="50" height="50" relative="1" as="geometry">
              <mxPoint x="-390" y="-64" as="sourcePoint" />
              <mxPoint x="-459.9047619047619" y="10" as="targetPoint" />
              <mxPoint as="offset" />
            </mxGeometry>
          </mxCell>
        </object>
        <object label="Risk to Health condition of residential population" Description="Description of the (key) Risk" Type="Risk" Layer="name of the corresponding layer (if applicable)" File="name of the geospatial file describing this component (if applicable)" Source="Source of the knowledge/information about this element (Literature, expert judgement, other)" References="Cited references (scientific papers, news item, etc." Confidence="Confidence on the knowledge/information about this element. It can be evaluated in accordance with the following categories: low (limited evidence), medium (moderate evidence) or high (robust evidence)." id="_F0MfmOvoYsbLBurmLUC-79">
          <mxCell style="rounded=1;whiteSpace=wrap;html=1;strokeWidth=1;fillColor=#f8cecc;strokeColor=#b85450;glass=0;shadow=0;" parent="1" vertex="1">
            <mxGeometry x="-620" y="250" width="120" height="60" as="geometry" />
          </mxCell>
        </object>
        <object label="&lt;b&gt;Heatwaves&lt;/b&gt;" Description="Heatwaves are events characterized by high temperatures that can last several days, and can be harmful for both the population and the ecological system in the urban environment.&#xa;In Bolzano the yearly average temperature is XXX, and in the last 10 years an increase of high temperature events has been observed [DA MODIFICARE OPPORTUNAMENTE]" Type="Hazard" Layer="name of the corresponding layer (if applicable)" File="name of the geospatial file describing this hazard component (if applicable)" Source="Source of the knowledge/information about this element (Literature, expert judgement, other)" References="Cited references (scientific papers, news item, etc." Confidence="Confidence on the knowledge/information about this element. It can be evaluated in accordance with the following categories: low (limited evidence), medium (moderate evidence) or high (robust evidence)." id="GEd216P_miA6AbYHsWlQ-1">
          <mxCell style="rounded=1;whiteSpace=wrap;html=1;strokeWidth=1;fillColor=#dae8fc;strokeColor=#6c8ebf;glass=0;shadow=0;" parent="1" vertex="1">
            <mxGeometry x="-250" y="-450" width="120" height="60" as="geometry" />
          </mxCell>
        </object>
        <object label="increase of Health impacts (morbidity, mortality)" Description="Strong traffic disturbance includes the segregation of residential areas as well as critical infrastructure, leading to increase travel time and possibly inability to reach certain places." Type="Impact" Layer="name of the corresponding layer (if applicable)" File="name of the geospatial file describing this component (if applicable)" Source="Source of the knowledge/information about this element (Literature, expert judgement, other)" References="Cited references (scientific papers, news item, etc." Confidence="medium (moderate evidence) or high (robust evidence)." id="GEd216P_miA6AbYHsWlQ-2">
          <mxCell style="rounded=1;whiteSpace=wrap;html=1;strokeWidth=1;fillColor=light-dark(#CCCCCC,#202020);strokeColor=#36393d;glass=0;shadow=0;" parent="1" vertex="1">
            <mxGeometry x="-370" y="-60" width="120" height="60" as="geometry" />
          </mxCell>
        </object>
        <object label="&lt;b&gt;Leads to&lt;/b&gt;" Description="Landslides can both directly damage the surface of the road, or make them locally unusable due to debris accumulation. [please substitute with your text!]. " References="Cited references (scientific papers, news item, etc." Source="Source of the knowledge/information about this element (Literature, expert judgement, other)" Confidence="high (robust evidence)." Time_Lag="minutes to hours&#xa;" id="GEd216P_miA6AbYHsWlQ-3">
          <mxCell style="endArrow=classic;html=1;rounded=1;exitX=0.5;exitY=1;exitDx=0;exitDy=0;jumpStyle=arc;edgeStyle=elbowEdgeStyle;elbow=vertical;entryX=0.5;entryY=0;entryDx=0;entryDy=0;" parent="1" source="GEd216P_miA6AbYHsWlQ-1" target="GEd216P_miA6AbYHsWlQ-2" edge="1">
            <mxGeometry x="0.018" width="50" height="50" relative="1" as="geometry">
              <mxPoint x="-220" y="-260" as="sourcePoint" />
              <mxPoint x="-370" y="-108.5" as="targetPoint" />
              <mxPoint as="offset" />
              <Array as="points">
                <mxPoint x="-260" y="-350" />
              </Array>
            </mxGeometry>
          </mxCell>
        </object>
        <object label="Increased stress of urban green" Description="Strong traffic disturbance includes the segregation of residential areas as well as critical infrastructure, leading to increase travel time and possibly inability to reach certain places." Type="Impact" Layer="name of the corresponding layer (if applicable)" File="name of the geospatial file describing this component (if applicable)" Source="Source of the knowledge/information about this element (Literature, expert judgement, other)" References="Cited references (scientific papers, news item, etc." Confidence="medium (moderate evidence) or high (robust evidence)." id="GEd216P_miA6AbYHsWlQ-4">
          <mxCell style="rounded=1;whiteSpace=wrap;html=1;strokeWidth=1;fillColor=light-dark(#CCCCCC,#202020);strokeColor=#36393d;glass=0;shadow=0;" parent="1" vertex="1">
            <mxGeometry x="-250" y="-310" width="120" height="60" as="geometry" />
          </mxCell>
        </object>
        <object label="&lt;b&gt;Leads to&lt;/b&gt;" Description="Landslides can both directly damage the surface of the road, or make them locally unusable due to debris accumulation. [please substitute with your text!]. " References="Cited references (scientific papers, news item, etc." Source="Source of the knowledge/information about this element (Literature, expert judgement, other)" Confidence="high (robust evidence)." Time_Lag="minutes to hours&#xa;" id="GEd216P_miA6AbYHsWlQ-5">
          <mxCell style="endArrow=classic;html=1;rounded=1;exitX=0.75;exitY=1;exitDx=0;exitDy=0;jumpStyle=arc;edgeStyle=elbowEdgeStyle;elbow=vertical;entryX=0.5;entryY=0;entryDx=0;entryDy=0;" parent="1" source="GEd216P_miA6AbYHsWlQ-4" target="GEd216P_miA6AbYHsWlQ-14" edge="1">
            <mxGeometry x="0.018" width="50" height="50" relative="1" as="geometry">
              <mxPoint x="-170.3199999999997" y="-251" as="sourcePoint" />
              <mxPoint x="-110" y="200" as="targetPoint" />
              <mxPoint as="offset" />
              <Array as="points">
                <mxPoint x="-160" y="-210" />
              </Array>
            </mxGeometry>
          </mxCell>
        </object>
        <object label="Green infrastructure" Description="Description of residential population in terms of no of inhabitants per square km" Type="Exposure" Layer="name of the corresponding layer (if applicable)" File="name of the geospatial file describing this component (if applicable)" Source="Source of the knowledge/information about this element (Literature, expert judgement, other)" References="Cited references (scientific papers, news item, etc." Confidence="Confidence on the knowledge/information about this element. It can be evaluated in accordance with the following categories: low (limited evidence), medium (moderate evidence) or high (robust evidence)." id="GEd216P_miA6AbYHsWlQ-6">
          <mxCell style="rounded=1;whiteSpace=wrap;html=1;strokeWidth=1;fillColor=#fff2cc;strokeColor=#d6b656;glass=0;shadow=0;fontStyle=1" parent="1" vertex="1">
            <mxGeometry x="20" y="-230" width="120" height="60" as="geometry" />
          </mxCell>
        </object>
        <object label="&lt;b&gt;Impacts on&lt;/b&gt;" Description="Residents of the damaged buildings are affected by the inagibility [please substitute with your text!]" References="Cited references (scientific papers, news item, etc." Source="Source of the knowledge/information about this element (Literature, expert judgement, other)" Confidence="high (robust evidence)." Time_Lag="not applicable" id="GEd216P_miA6AbYHsWlQ-7">
          <mxCell style="endArrow=classic;html=1;rounded=1;exitX=1;exitY=0.75;exitDx=0;exitDy=0;strokeColor=#006600;dashed=1;dashPattern=12 12;edgeStyle=elbowEdgeStyle;jumpStyle=arc;jumpSize=7;entryX=0;entryY=0.5;entryDx=0;entryDy=0;" parent="1" source="GEd216P_miA6AbYHsWlQ-4" target="GEd216P_miA6AbYHsWlQ-6" edge="1">
            <mxGeometry x="-0.0651" width="50" height="50" relative="1" as="geometry">
              <mxPoint x="-340" y="-100" as="sourcePoint" />
              <mxPoint x="-450" y="20" as="targetPoint" />
              <mxPoint as="offset" />
              <Array as="points" />
            </mxGeometry>
          </mxCell>
        </object>
        <object label="Urban Heat Island effect" Description="The specific topology of road network in the town of Genoa shows evidences of non-redundancy, in particular in the hilly areas characterized by small and meandering roads." Type="Vulnerability" Layer="name of the corresponding layer (if applicable)" File="name of the geospatial file describing this component (if applicable)" Source="Source of the knowledge/information about this element (Literature, expert judgement, other)" References="Cited references (scientific papers, news item, etc." Confidence="medium (moderate evidence) to high (robust evidence)." id="GEd216P_miA6AbYHsWlQ-8">
          <mxCell style="rounded=1;whiteSpace=wrap;html=1;strokeWidth=1;fillColor=#d5e8d4;strokeColor=#82b366;glass=0;shadow=0;" parent="1" vertex="1">
            <mxGeometry x="20" y="-350" width="120" height="60" as="geometry" />
          </mxCell>
        </object>
        <object label="&lt;b&gt;Leads to&lt;/b&gt;" Description="Landslides can both directly damage the surface of the road, or make them locally unusable due to debris accumulation. [please substitute with your text!]. " References="Cited references (scientific papers, news item, etc." Source="Source of the knowledge/information about this element (Literature, expert judgement, other)" Confidence="high (robust evidence)." Time_Lag="minutes to hours&#xa;" id="GEd216P_miA6AbYHsWlQ-12">
          <mxCell style="endArrow=classic;html=1;rounded=1;exitX=0.5;exitY=1;exitDx=0;exitDy=0;jumpStyle=arc;edgeStyle=elbowEdgeStyle;elbow=vertical;entryX=0.5;entryY=0;entryDx=0;entryDy=0;" parent="1" source="GEd216P_miA6AbYHsWlQ-1" target="GEd216P_miA6AbYHsWlQ-4" edge="1">
            <mxGeometry x="0.018" width="50" height="50" relative="1" as="geometry">
              <mxPoint y="-340" as="sourcePoint" />
              <mxPoint x="-83" y="-226" as="targetPoint" />
              <mxPoint as="offset" />
              <Array as="points">
                <mxPoint x="-180" y="-360" />
              </Array>
            </mxGeometry>
          </mxCell>
        </object>
        <object label="&lt;b&gt;Affects&lt;/b&gt;" Description="limited redundancy of the road network and other topological weaknesses may increase the impact of road damage on the capacity of the network of carrying traffic, therefore resulting in significant traffic disturbances.&#xa;[please substitute with your text!]" References="Cited references (scientific papers, news item, etc." Source="Source of the knowledge/information about this element (Literature, expert judgement, other)" Confidence="high (robust evidence)." Time_Lag="minutes to hours" id="GEd216P_miA6AbYHsWlQ-13">
          <mxCell style="endArrow=classic;html=1;rounded=1;strokeColor=#006600;edgeStyle=elbowEdgeStyle;curved=0;jumpStyle=arc;jumpSize=7;shadow=0;flowAnimation=0;exitX=0;exitY=0.5;exitDx=0;exitDy=0;entryX=1;entryY=0.5;entryDx=0;entryDy=0;" parent="1" source="GEd216P_miA6AbYHsWlQ-8" target="GEd216P_miA6AbYHsWlQ-4" edge="1">
            <mxGeometry width="50" height="50" relative="1" as="geometry">
              <mxPoint x="-90" y="-250" as="sourcePoint" />
              <mxPoint x="-10" y="-250" as="targetPoint" />
              <mxPoint as="offset" />
              <Array as="points">
                <mxPoint x="-60" y="-260" />
              </Array>
            </mxGeometry>
          </mxCell>
        </object>
        <object label="Risk to urban green infrastructure" Description="Description of the (key) Risk" Type="Risk" Layer="name of the corresponding layer (if applicable)" File="name of the geospatial file describing this component (if applicable)" Source="Source of the knowledge/information about this element (Literature, expert judgement, other)" References="Cited references (scientific papers, news item, etc." Confidence="Confidence on the knowledge/information about this element. It can be evaluated in accordance with the following categories: low (limited evidence), medium (moderate evidence) or high (robust evidence)." id="GEd216P_miA6AbYHsWlQ-14">
          <mxCell style="rounded=1;whiteSpace=wrap;html=1;strokeWidth=1;fillColor=#f8cecc;strokeColor=#b85450;glass=0;shadow=0;" parent="1" vertex="1">
            <mxGeometry x="-180" y="250" width="120" height="60" as="geometry" />
          </mxCell>
        </object>
        <object label="Socio-economic vulnerability" Description="The specific topology of road network in the town of Genoa shows evidences of non-redundancy, in particular in the hilly areas characterized by small and meandering roads." Type="Vulnerability" Layer="name of the corresponding layer (if applicable)" File="name of the geospatial file describing this component (if applicable)" Source="Source of the knowledge/information about this element (Literature, expert judgement, other)" References="Cited references (scientific papers, news item, etc." Confidence="medium (moderate evidence) to high (robust evidence)." id="GEd216P_miA6AbYHsWlQ-15">
          <mxCell style="rounded=1;whiteSpace=wrap;html=1;strokeWidth=1;fillColor=#d5e8d4;strokeColor=#82b366;glass=0;shadow=0;" parent="1" vertex="1">
            <mxGeometry x="20" y="-120" width="120" height="60" as="geometry" />
          </mxCell>
        </object>
        <object label="&lt;b&gt;Affects&lt;/b&gt;" Description="limited redundancy of the road network and other topological weaknesses may increase the impact of road damage on the capacity of the network of carrying traffic, therefore resulting in significant traffic disturbances.&#xa;[please substitute with your text!]" References="Cited references (scientific papers, news item, etc." Source="Source of the knowledge/information about this element (Literature, expert judgement, other)" Confidence="high (robust evidence)." Time_Lag="minutes to hours" id="GEd216P_miA6AbYHsWlQ-16">
          <mxCell style="endArrow=classic;html=1;rounded=1;strokeColor=#006600;edgeStyle=elbowEdgeStyle;curved=0;jumpStyle=arc;jumpSize=7;shadow=0;flowAnimation=0;exitX=0;exitY=0.5;exitDx=0;exitDy=0;entryX=1;entryY=0.25;entryDx=0;entryDy=0;" parent="1" source="GEd216P_miA6AbYHsWlQ-15" target="GEd216P_miA6AbYHsWlQ-2" edge="1">
            <mxGeometry x="-0.527" width="50" height="50" relative="1" as="geometry">
              <mxPoint y="-40" as="sourcePoint" />
              <mxPoint x="-160" as="targetPoint" />
              <mxPoint as="offset" />
              <Array as="points">
                <mxPoint x="-110" y="-80" />
              </Array>
            </mxGeometry>
          </mxCell>
        </object>
        <object label="Uninformed behavior of inhabitants" Description="The specific topology of road network in the town of Genoa shows evidences of non-redundancy, in particular in the hilly areas characterized by small and meandering roads." Type="Vulnerability" Layer="name of the corresponding layer (if applicable)" File="name of the geospatial file describing this component (if applicable)" Source="Source of the knowledge/information about this element (Literature, expert judgement, other)" References="Cited references (scientific papers, news item, etc." Confidence="medium (moderate evidence) to high (robust evidence)." id="GEd216P_miA6AbYHsWlQ-17">
          <mxCell style="rounded=1;whiteSpace=wrap;html=1;strokeWidth=1;fillColor=#d5e8d4;strokeColor=#82b366;glass=0;shadow=0;" parent="1" vertex="1">
            <mxGeometry x="20" y="-15" width="120" height="60" as="geometry" />
          </mxCell>
        </object>
        <object label="&lt;b&gt;Affects&lt;/b&gt;" Description="limited redundancy of the road network and other topological weaknesses may increase the impact of road damage on the capacity of the network of carrying traffic, therefore resulting in significant traffic disturbances.&#xa;[please substitute with your text!]" References="Cited references (scientific papers, news item, etc." Source="Source of the knowledge/information about this element (Literature, expert judgement, other)" Confidence="high (robust evidence)." Time_Lag="minutes to hours" id="GEd216P_miA6AbYHsWlQ-18">
          <mxCell style="endArrow=classic;html=1;rounded=1;strokeColor=#006600;edgeStyle=elbowEdgeStyle;curved=0;jumpStyle=arc;jumpSize=7;shadow=0;flowAnimation=0;exitX=0;exitY=0.5;exitDx=0;exitDy=0;entryX=1;entryY=0.75;entryDx=0;entryDy=0;" parent="1" source="GEd216P_miA6AbYHsWlQ-17" target="GEd216P_miA6AbYHsWlQ-2" edge="1">
            <mxGeometry x="-0.6111" width="50" height="50" relative="1" as="geometry">
              <mxPoint x="5" y="15" as="sourcePoint" />
              <mxPoint x="-245" y="-15" as="targetPoint" />
              <mxPoint as="offset" />
              <Array as="points">
                <mxPoint x="-170" y="-30" />
              </Array>
            </mxGeometry>
          </mxCell>
        </object>
        <object label="Socio-economic impact on population" Description="Strong traffic disturbance includes the segregation of residential areas as well as critical infrastructure, leading to increase travel time and possibly inability to reach certain places." Type="Impact" Layer="name of the corresponding layer (if applicable)" File="name of the geospatial file describing this component (if applicable)" Source="Source of the knowledge/information about this element (Literature, expert judgement, other)" References="Cited references (scientific papers, news item, etc." Confidence="medium (moderate evidence) or high (robust evidence)." id="GEd216P_miA6AbYHsWlQ-19">
          <mxCell style="rounded=1;whiteSpace=wrap;html=1;strokeWidth=1;fillColor=light-dark(#CCCCCC,#202020);strokeColor=#36393d;glass=0;shadow=0;" parent="1" vertex="1">
            <mxGeometry x="-300" y="110" width="120" height="60" as="geometry" />
          </mxCell>
        </object>
        <object label="Leads to" Description="contributes to the risk [please substitute with your text!]. " References="Cited references (scientific papers, news item, etc." Source="Source of the knowledge/information about this element (Literature, expert judgement, other)" Confidence="high (robust evidence)." Time_Lag="weeks to months&#xa;" id="GEd216P_miA6AbYHsWlQ-20">
          <mxCell style="endArrow=classic;html=1;rounded=1;exitX=0.75;exitY=1;exitDx=0;exitDy=0;jumpStyle=arc;edgeStyle=elbowEdgeStyle;elbow=vertical;entryX=0.5;entryY=0;entryDx=0;entryDy=0;" parent="1" source="GEd216P_miA6AbYHsWlQ-2" target="GEd216P_miA6AbYHsWlQ-19" edge="1">
            <mxGeometry x="0.018" width="50" height="50" relative="1" as="geometry">
              <mxPoint x="-280" y="-70" as="sourcePoint" />
              <mxPoint x="-530" y="210" as="targetPoint" />
              <mxPoint as="offset" />
              <Array as="points" />
            </mxGeometry>
          </mxCell>
        </object>
        <object label="Leads to" Description="contributes to the risk [please substitute with your text!]. " References="Cited references (scientific papers, news item, etc." Source="Source of the knowledge/information about this element (Literature, expert judgement, other)" Confidence="high (robust evidence)." Time_Lag="weeks to months&#xa;" id="GEd216P_miA6AbYHsWlQ-21">
          <mxCell style="endArrow=classic;html=1;rounded=1;exitX=0.5;exitY=1;exitDx=0;exitDy=0;jumpStyle=arc;edgeStyle=elbowEdgeStyle;elbow=vertical;entryX=0.5;entryY=0;entryDx=0;entryDy=0;" parent="1" source="GEd216P_miA6AbYHsWlQ-19" target="_F0MfmOvoYsbLBurmLUC-41" edge="1">
            <mxGeometry x="0.018" width="50" height="50" relative="1" as="geometry">
              <mxPoint x="-270" y="130" as="sourcePoint" />
              <mxPoint x="-220" y="260" as="targetPoint" />
              <mxPoint as="offset" />
              <Array as="points">
                <mxPoint x="-270" y="200" />
              </Array>
            </mxGeometry>
          </mxCell>
        </object>
        <object label="&lt;b&gt;Impacts on&lt;/b&gt;" Description="Residents of the damaged buildings are affected by the inagibility [please substitute with your text!]" References="Cited references (scientific papers, news item, etc." Source="Source of the knowledge/information about this element (Literature, expert judgement, other)" Confidence="high (robust evidence)." Time_Lag="not applicable" id="GEd216P_miA6AbYHsWlQ-22">
          <mxCell style="endArrow=classic;html=1;rounded=1;exitX=0;exitY=0.5;exitDx=0;exitDy=0;strokeColor=#006600;dashed=1;dashPattern=12 12;edgeStyle=elbowEdgeStyle;jumpStyle=arc;jumpSize=7;entryX=1;entryY=0.5;entryDx=0;entryDy=0;" parent="1" source="GEd216P_miA6AbYHsWlQ-19" target="_F0MfmOvoYsbLBurmLUC-55" edge="1">
            <mxGeometry x="-0.3953" width="50" height="50" relative="1" as="geometry">
              <mxPoint x="-340" y="-100" as="sourcePoint" />
              <mxPoint x="-450" y="20" as="targetPoint" />
              <mxPoint as="offset" />
            </mxGeometry>
          </mxCell>
        </object>
        <object label="&lt;b&gt;Increase of temperature&lt;br&gt;&lt;/b&gt;" Description="Heatwaves are events characterized by high temperatures that can last several days, and can be harmful for both the population and the ecological system in the urban environment.&#xa;In Bolzano the yearly average temperature is XXX, and in the last 10 years an increase of high temperature events has been observed [DA MODIFICARE OPPORTUNAMENTE]" Type="Hazard" Layer="name of the corresponding layer (if applicable)" File="name of the geospatial file describing this hazard component (if applicable)" Source="Source of the knowledge/information about this element (Literature, expert judgement, other)" References="Cited references (scientific papers, news item, etc." Confidence="Confidence on the knowledge/information about this element. It can be evaluated in accordance with the following categories: low (limited evidence), medium (moderate evidence) or high (robust evidence)." id="7azoTFsJbE2xDn5kk4Lu-1">
          <mxCell style="rounded=1;whiteSpace=wrap;html=1;strokeWidth=1;fillColor=#dae8fc;strokeColor=#6c8ebf;glass=0;shadow=0;" parent="1" vertex="1">
            <mxGeometry x="-250" y="-600" width="120" height="60" as="geometry" />
          </mxCell>
        </object>
        <object label="&lt;b&gt;Leads to&lt;/b&gt;" Description="Landslides can both directly damage the surface of the road, or make them locally unusable due to debris accumulation. [please substitute with your text!]. " References="Cited references (scientific papers, news item, etc." Source="Source of the knowledge/information about this element (Literature, expert judgement, other)" Confidence="high (robust evidence)." Time_Lag="minutes to hours&#xa;" id="7azoTFsJbE2xDn5kk4Lu-2">
          <mxCell style="endArrow=classic;html=1;rounded=1;exitX=0.5;exitY=1;exitDx=0;exitDy=0;jumpStyle=arc;edgeStyle=elbowEdgeStyle;elbow=vertical;entryX=0.5;entryY=0;entryDx=0;entryDy=0;" parent="1" source="7azoTFsJbE2xDn5kk4Lu-1" target="GEd216P_miA6AbYHsWlQ-1" edge="1">
            <mxGeometry x="0.018" width="50" height="50" relative="1" as="geometry">
              <mxPoint x="-190.71" y="-520" as="sourcePoint" />
              <mxPoint x="-190.71" y="-440" as="targetPoint" />
              <mxPoint as="offset" />
              <Array as="points">
                <mxPoint x="-180.71" y="-490" />
              </Array>
            </mxGeometry>
          </mxCell>
        </object>
        <object label="Increase of indoor PM" Description="Strong traffic disturbance includes the segregation of residential areas as well as critical infrastructure, leading to increase travel time and possibly inability to reach certain places." Type="Impact" Layer="name of the corresponding layer (if applicable)" File="name of the geospatial file describing this component (if applicable)" Source="Source of the knowledge/information about this element (Literature, expert judgement, other)" References="Cited references (scientific papers, news item, etc." Confidence="medium (moderate evidence) or high (robust evidence)." id="7azoTFsJbE2xDn5kk4Lu-3">
          <mxCell style="rounded=1;whiteSpace=wrap;html=1;strokeWidth=1;fillColor=light-dark(#CCCCCC,#202020);strokeColor=#36393d;glass=0;shadow=0;" parent="1" vertex="1">
            <mxGeometry x="-460" y="-260" width="120" height="60" as="geometry" />
          </mxCell>
        </object>
        <object label="Increase of indoor Ozone" Description="Strong traffic disturbance includes the segregation of residential areas as well as critical infrastructure, leading to increase travel time and possibly inability to reach certain places." Type="Impact" Layer="name of the corresponding layer (if applicable)" File="name of the geospatial file describing this component (if applicable)" Source="Source of the knowledge/information about this element (Literature, expert judgement, other)" References="Cited references (scientific papers, news item, etc." Confidence="medium (moderate evidence) or high (robust evidence)." id="7azoTFsJbE2xDn5kk4Lu-4">
          <mxCell style="rounded=1;whiteSpace=wrap;html=1;strokeWidth=1;fillColor=light-dark(#CCCCCC,#202020);strokeColor=#36393d;glass=0;shadow=0;" parent="1" vertex="1">
            <mxGeometry x="-700" y="-310" width="120" height="60" as="geometry" />
          </mxCell>
        </object>
        <object label="Increase of indoor HCHO" Description="Strong traffic disturbance includes the segregation of residential areas as well as critical infrastructure, leading to increase travel time and possibly inability to reach certain places." Type="Impact" Layer="name of the corresponding layer (if applicable)" File="name of the geospatial file describing this component (if applicable)" Source="Source of the knowledge/information about this element (Literature, expert judgement, other)" References="Cited references (scientific papers, news item, etc." Confidence="medium (moderate evidence) or high (robust evidence)." id="7azoTFsJbE2xDn5kk4Lu-6">
          <mxCell style="rounded=1;whiteSpace=wrap;html=1;strokeWidth=1;fillColor=light-dark(#CCCCCC,#202020);strokeColor=#36393d;glass=0;shadow=0;" parent="1" vertex="1">
            <mxGeometry x="-600" y="-180" width="120" height="60" as="geometry" />
          </mxCell>
        </object>
        <object label="&lt;b&gt;Leads to&lt;/b&gt;" Description="Landslides can both directly damage the surface of the road, or make them locally unusable due to debris accumulation. [please substitute with your text!]. " References="Cited references (scientific papers, news item, etc." Source="Source of the knowledge/information about this element (Literature, expert judgement, other)" Confidence="high (robust evidence)." Time_Lag="minutes to hours&#xa;" id="7azoTFsJbE2xDn5kk4Lu-7">
          <mxCell style="endArrow=classic;html=1;rounded=1;jumpStyle=arc;edgeStyle=elbowEdgeStyle;elbow=vertical;entryX=0.5;entryY=0;entryDx=0;entryDy=0;exitX=0;exitY=0.5;exitDx=0;exitDy=0;" parent="1" source="GEd216P_miA6AbYHsWlQ-1" target="7azoTFsJbE2xDn5kk4Lu-3" edge="1">
            <mxGeometry x="0.4615" width="50" height="50" relative="1" as="geometry">
              <mxPoint x="-420" y="-480" as="sourcePoint" />
              <mxPoint x="-180" y="-440" as="targetPoint" />
              <mxPoint as="offset" />
              <Array as="points">
                <mxPoint x="-320" y="-420" />
              </Array>
            </mxGeometry>
          </mxCell>
        </object>
        <object label="&lt;b&gt;Leads to&lt;/b&gt;" Description="Landslides can both directly damage the surface of the road, or make them locally unusable due to debris accumulation. [please substitute with your text!]. " References="Cited references (scientific papers, news item, etc." Source="Source of the knowledge/information about this element (Literature, expert judgement, other)" Confidence="high (robust evidence)." Time_Lag="minutes to hours&#xa;" id="7azoTFsJbE2xDn5kk4Lu-8">
          <mxCell style="endArrow=classic;html=1;rounded=1;jumpStyle=arc;edgeStyle=elbowEdgeStyle;entryX=0.5;entryY=0;entryDx=0;entryDy=0;exitX=0;exitY=0.5;exitDx=0;exitDy=0;" parent="1" source="GEd216P_miA6AbYHsWlQ-1" target="7azoTFsJbE2xDn5kk4Lu-4" edge="1">
            <mxGeometry x="0.4" width="50" height="50" relative="1" as="geometry">
              <mxPoint x="-240" y="-410" as="sourcePoint" />
              <mxPoint x="-390" y="-300" as="targetPoint" />
              <mxPoint as="offset" />
              <Array as="points">
                <mxPoint x="-640" y="-360" />
              </Array>
            </mxGeometry>
          </mxCell>
        </object>
        <object label="&lt;b&gt;Leads to&lt;/b&gt;" Description="Landslides can both directly damage the surface of the road, or make them locally unusable due to debris accumulation. [please substitute with your text!]. " References="Cited references (scientific papers, news item, etc." Source="Source of the knowledge/information about this element (Literature, expert judgement, other)" Confidence="high (robust evidence)." Time_Lag="minutes to hours&#xa;" id="7azoTFsJbE2xDn5kk4Lu-9">
          <mxCell style="endArrow=classic;html=1;rounded=1;jumpStyle=arc;edgeStyle=elbowEdgeStyle;entryX=0.5;entryY=0;entryDx=0;entryDy=0;exitX=0;exitY=0.5;exitDx=0;exitDy=0;" parent="1" source="GEd216P_miA6AbYHsWlQ-1" target="7azoTFsJbE2xDn5kk4Lu-6" edge="1">
            <mxGeometry x="0.5294" width="50" height="50" relative="1" as="geometry">
              <mxPoint x="-240" y="-410" as="sourcePoint" />
              <mxPoint x="-610" y="-300" as="targetPoint" />
              <mxPoint as="offset" />
              <Array as="points">
                <mxPoint x="-540" y="-310" />
              </Array>
            </mxGeometry>
          </mxCell>
        </object>
        <object label="&lt;b&gt;Leads to&lt;/b&gt;" Description="Landslides can both directly damage the surface of the road, or make them locally unusable due to debris accumulation. [please substitute with your text!]. " References="Cited references (scientific papers, news item, etc." Source="Source of the knowledge/information about this element (Literature, expert judgement, other)" Confidence="high (robust evidence)." Time_Lag="minutes to hours&#xa;" id="7azoTFsJbE2xDn5kk4Lu-10">
          <mxCell style="endArrow=classic;html=1;rounded=1;exitX=0.5;exitY=1;exitDx=0;exitDy=0;jumpStyle=arc;edgeStyle=elbowEdgeStyle;elbow=vertical;entryX=0.5;entryY=0;entryDx=0;entryDy=0;" parent="1" source="7azoTFsJbE2xDn5kk4Lu-4" target="7azoTFsJbE2xDn5kk4Lu-6" edge="1">
            <mxGeometry x="0.018" width="50" height="50" relative="1" as="geometry">
              <mxPoint x="-650" y="-210" as="sourcePoint" />
              <mxPoint x="-650" y="-130" as="targetPoint" />
              <mxPoint as="offset" />
              <Array as="points" />
            </mxGeometry>
          </mxCell>
        </object>
        <object label="&lt;b&gt;Leads to&lt;/b&gt;" Description="Landslides can both directly damage the surface of the road, or make them locally unusable due to debris accumulation. [please substitute with your text!]. " References="Cited references (scientific papers, news item, etc." Source="Source of the knowledge/information about this element (Literature, expert judgement, other)" Confidence="high (robust evidence)." Time_Lag="minutes to hours&#xa;" id="7azoTFsJbE2xDn5kk4Lu-12">
          <mxCell style="endArrow=classic;html=1;rounded=1;exitX=0.5;exitY=1;exitDx=0;exitDy=0;jumpStyle=arc;edgeStyle=elbowEdgeStyle;elbow=vertical;entryX=0.25;entryY=0;entryDx=0;entryDy=0;" parent="1" source="7azoTFsJbE2xDn5kk4Lu-6" target="GEd216P_miA6AbYHsWlQ-2" edge="1">
            <mxGeometry x="0.018" width="50" height="50" relative="1" as="geometry">
              <mxPoint x="-630" y="-240" as="sourcePoint" />
              <mxPoint x="-530" y="-170" as="targetPoint" />
              <mxPoint as="offset" />
              <Array as="points" />
            </mxGeometry>
          </mxCell>
        </object>
        <object label="&lt;b&gt;Leads to&lt;/b&gt;" Description="Landslides can both directly damage the surface of the road, or make them locally unusable due to debris accumulation. [please substitute with your text!]. " References="Cited references (scientific papers, news item, etc." Source="Source of the knowledge/information about this element (Literature, expert judgement, other)" Confidence="high (robust evidence)." Time_Lag="minutes to hours&#xa;" id="7azoTFsJbE2xDn5kk4Lu-13">
          <mxCell style="endArrow=classic;html=1;rounded=1;exitX=0.5;exitY=1;exitDx=0;exitDy=0;jumpStyle=arc;edgeStyle=elbowEdgeStyle;elbow=vertical;" parent="1" source="7azoTFsJbE2xDn5kk4Lu-3" edge="1">
            <mxGeometry x="0.018" width="50" height="50" relative="1" as="geometry">
              <mxPoint x="-530" y="-110" as="sourcePoint" />
              <mxPoint x="-310" y="-60" as="targetPoint" />
              <mxPoint as="offset" />
              <Array as="points" />
            </mxGeometry>
          </mxCell>
        </object>
        <object label="&lt;b&gt;Leads to&lt;/b&gt;" Description="Landslides can both directly damage the surface of the road, or make them locally unusable due to debris accumulation. [please substitute with your text!]. " References="Cited references (scientific papers, news item, etc." Source="Source of the knowledge/information about this element (Literature, expert judgement, other)" Confidence="high (robust evidence)." Time_Lag="minutes to hours&#xa;" id="7azoTFsJbE2xDn5kk4Lu-14">
          <mxCell style="endArrow=classic;html=1;rounded=1;exitX=0.5;exitY=1;exitDx=0;exitDy=0;jumpStyle=arc;edgeStyle=elbowEdgeStyle;elbow=vertical;entryX=0.25;entryY=0;entryDx=0;entryDy=0;" parent="1" source="7azoTFsJbE2xDn5kk4Lu-4" target="GEd216P_miA6AbYHsWlQ-2" edge="1">
            <mxGeometry x="-0.2245" width="50" height="50" relative="1" as="geometry">
              <mxPoint x="-530" y="-110" as="sourcePoint" />
              <mxPoint x="-330" y="-50" as="targetPoint" />
              <mxPoint as="offset" />
              <Array as="points">
                <mxPoint x="-540" y="-90" />
              </Array>
            </mxGeometry>
          </mxCell>
        </object>
        <object label="&lt;b&gt;Impacts on&lt;/b&gt;" Description="Residents of the damaged buildings are affected by the inagibility [please substitute with your text!]" References="Cited references (scientific papers, news item, etc." Source="Source of the knowledge/information about this element (Literature, expert judgement, other)" Confidence="high (robust evidence)." Time_Lag="not applicable" id="7azoTFsJbE2xDn5kk4Lu-15">
          <mxCell style="endArrow=classic;html=1;rounded=1;exitX=0;exitY=0.5;exitDx=0;exitDy=0;strokeColor=#006600;dashed=1;dashPattern=12 12;edgeStyle=elbowEdgeStyle;jumpStyle=arc;jumpSize=7;entryX=0.5;entryY=0;entryDx=0;entryDy=0;" parent="1" source="7azoTFsJbE2xDn5kk4Lu-4" target="_F0MfmOvoYsbLBurmLUC-37" edge="1">
            <mxGeometry x="0.0031" y="1" width="50" height="50" relative="1" as="geometry">
              <mxPoint x="-710" y="-250" as="sourcePoint" />
              <mxPoint x="-1000" y="-150" as="targetPoint" />
              <mxPoint as="offset" />
              <Array as="points">
                <mxPoint x="-810" y="-230" />
              </Array>
            </mxGeometry>
          </mxCell>
        </object>
        <object label="&lt;b&gt;Impacts on&lt;/b&gt;" Description="Residents of the damaged buildings are affected by the inagibility [please substitute with your text!]" References="Cited references (scientific papers, news item, etc." Source="Source of the knowledge/information about this element (Literature, expert judgement, other)" Confidence="high (robust evidence)." Time_Lag="not applicable" id="7azoTFsJbE2xDn5kk4Lu-16">
          <mxCell style="endArrow=classic;html=1;rounded=1;exitX=0;exitY=0.5;exitDx=0;exitDy=0;strokeColor=#006600;dashed=1;dashPattern=12 12;edgeStyle=elbowEdgeStyle;jumpStyle=arc;jumpSize=7;entryX=1;entryY=0.5;entryDx=0;entryDy=0;" parent="1" source="7azoTFsJbE2xDn5kk4Lu-6" target="_F0MfmOvoYsbLBurmLUC-37" edge="1">
            <mxGeometry x="0.0031" y="1" width="50" height="50" relative="1" as="geometry">
              <mxPoint x="-690" y="-270" as="sourcePoint" />
              <mxPoint x="-800" y="-170" as="targetPoint" />
              <mxPoint as="offset" />
              <Array as="points" />
            </mxGeometry>
          </mxCell>
        </object>
        <object label="&lt;b&gt;Impacts on&lt;/b&gt;" Description="Residents of the damaged buildings are affected by the inagibility [please substitute with your text!]" References="Cited references (scientific papers, news item, etc." Source="Source of the knowledge/information about this element (Literature, expert judgement, other)" Confidence="high (robust evidence)." Time_Lag="not applicable" id="7azoTFsJbE2xDn5kk4Lu-21">
          <mxCell style="endArrow=classic;html=1;rounded=1;exitX=0;exitY=0.5;exitDx=0;exitDy=0;strokeColor=#006600;dashed=1;dashPattern=12 12;edgeStyle=elbowEdgeStyle;jumpStyle=arc;jumpSize=7;entryX=0.75;entryY=0;entryDx=0;entryDy=0;" parent="1" source="7azoTFsJbE2xDn5kk4Lu-3" target="_F0MfmOvoYsbLBurmLUC-37" edge="1">
            <mxGeometry x="0.5135" width="50" height="50" relative="1" as="geometry">
              <mxPoint x="-690" y="-270" as="sourcePoint" />
              <mxPoint x="-800" y="-170" as="targetPoint" />
              <mxPoint as="offset" />
              <Array as="points">
                <mxPoint x="-780" y="-210" />
              </Array>
            </mxGeometry>
          </mxCell>
        </object>
      </root>
    </mxGraphModel>
  </diagram>
</mxfile>
